<?xml version="1.0" encoding="UTF-8" standalone="no"?>
<!-- Created with Inkscape (http://www.inkscape.org/) -->

<svg
   width="139.17599mm"
   height="67.494873mm"
   viewBox="0 0 139.17599 67.494873"
   version="1.1"
   id="svg14813"
   inkscape:version="1.1 (c68e22c387, 2021-05-23)"
   sodipodi:docname="fullname.svg"
   xmlns:inkscape="http://www.inkscape.org/namespaces/inkscape"
   xmlns:sodipodi="http://sodipodi.sourceforge.net/DTD/sodipodi-0.dtd"
   xmlns="http://www.w3.org/2000/svg"
   xmlns:svg="http://www.w3.org/2000/svg">
  <sodipodi:namedview
     id="namedview14815"
     pagecolor="#ffffff"
     bordercolor="#999999"
     borderopacity="1"
     inkscape:pageshadow="0"
     inkscape:pageopacity="0"
     inkscape:pagecheckerboard="0"
     inkscape:document-units="mm"
     showgrid="false"
     inkscape:zoom="0.51906082"
     inkscape:cx="52.980304"
     inkscape:cy="567.37089"
     inkscape:window-width="1920"
     inkscape:window-height="1009"
     inkscape:window-x="-8"
     inkscape:window-y="-8"
     inkscape:window-maximized="1"
     inkscape:current-layer="layer1" />
  <defs
     id="defs14810" />
  <g
     inkscape:label="Capa 1"
     inkscape:groupmode="layer"
     id="layer1"
     transform="translate(-27.830475,-40.823274)">
    <path
       id="path22987"
       style="color:#000000;font-size:30.928px;-inkscape-font-specification:'Billion Dreams';letter-spacing:0.162372px;word-spacing:0px;fill:#000000;stroke-width:0.7732;-inkscape-stroke:none"
       d="m 48.256107,40.823287 c -0.90279,0.0018 -1.800847,0.13035 -2.693892,0.385509 -1.298975,0.350512 -2.546525,0.886515 -3.742407,1.608169 -1.175264,0.70104 -2.278425,1.546069 -3.309358,2.535764 -1.010317,0.969079 -1.886509,1.979792 -2.628781,3.031339 -0.742273,1.051552 -1.32969,2.102776 -1.762684,3.154328 -0.412374,1.030933 -0.608181,1.959063 -0.58756,2.783811 0,0.639178 0.14387,1.164791 0.432531,1.577163 0.288663,0.391755 0.649628,0.690917 1.082622,0.897104 0.453609,0.206161 0.948578,0.329769 1.484664,0.371036 0.556704,0.02061 1.10309,-0.02041 1.639176,-0.123505 0.536085,-0.103095 1.041439,-0.257868 1.515671,-0.464055 0.474228,-0.226801 0.855453,-0.484413 1.144114,-0.773081 v -5.16e-4 c -0.371134,0.185608 -0.752362,0.299347 -1.144114,0.340548 -0.371137,0.04127 -0.721718,0.02046 -1.051616,-0.06201 -0.329898,-0.08248 -0.608288,-0.216476 -0.835091,-0.402045 -0.226806,-0.185565 -0.381579,-0.422407 -0.464055,-0.711067 -0.247423,-0.721651 -0.22665,-1.536041 0.06201,-2.443261 0.28866,-0.92784 0.742079,-1.866355 1.360638,-2.814814 0.618561,-0.969082 1.360755,-1.90708 2.226739,-2.814299 0.865983,-0.927841 1.76295,-1.752616 2.690791,-2.474267 0.94846,-0.742275 1.876589,-1.32969 2.783811,-1.762683 0.907219,-0.453628 1.711219,-0.690986 2.412254,-0.711587 0.63918,0 1.123759,0.185423 1.453657,0.556557 0.350518,0.35052 0.587357,0.804449 0.711068,1.361157 0.144336,0.556699 0.196271,1.185672 0.15503,1.886706 -0.04124,0.680421 -0.123817,1.340028 -0.247531,1.979208 -0.103092,0.618559 -0.216834,1.185722 -0.340548,1.701189 -0.123714,0.494845 -0.216164,0.835041 -0.278019,1.020609 -1.195882,0.556707 -2.350463,1.175287 -3.463869,1.8557 -1.113409,0.659799 -2.165152,1.360448 -3.154847,2.102715 -0.989695,0.721651 -1.907439,1.463842 -2.752804,2.226736 -0.845365,0.762894 -1.587558,1.525863 -2.226736,2.288749 -1.09279,1.29898 -1.958597,2.463943 -2.597774,3.494879 -0.618562,1.030933 -1.071981,1.969455 -1.360641,2.814814 -0.30928,1.051552 -0.381474,1.906969 -0.216525,2.566768 0.185568,0.659794 0.546018,1.154764 1.082104,1.484665 0.536085,0.329879 1.216472,0.484653 2.041221,0.464052 0.824745,-0.02062 1.721712,-0.216942 2.690791,-0.588076 0.989695,-0.371141 1.99989,-0.927399 3.030823,-1.669666 1.051552,-0.721654 2.072648,-1.639398 3.062346,-2.752805 0.948457,-1.051552 1.814263,-2.165096 2.597774,-3.340364 0.783508,-1.19588 1.48467,-2.381105 2.103229,-3.55637 0.618561,-1.175261 1.144174,-2.31997 1.577165,-3.433382 0.453612,-1.113409 0.814578,-2.133989 1.082622,-3.06183 0.350517,-0.268041 0.865743,-0.525653 1.546159,-0.77308 0.680416,-0.268039 1.391965,-0.474232 2.134235,-0.618567 -0.30928,-0.350512 -0.71128,-0.628904 -1.206127,-0.835091 -0.494848,-0.206185 -1.103043,-0.247214 -1.824694,-0.123505 0.185568,-1.010314 0.267632,-1.96909 0.247013,-2.876312 0,-0.907219 -0.175033,-1.721607 -0.52555,-2.44326 -0.329899,-0.721654 -0.876284,-1.319972 -1.639176,-1.794206 -0.742273,-0.494848 -1.762853,-0.824659 -3.06183,-0.989605 -0.412371,-0.05155 -0.823671,-0.07677 -1.234032,-0.07596 z m 66.252293,1.622642 c -0.86599,-0.02062 -1.8045,0.144024 -2.81482,0.494544 -0.98969,0.329893 -1.9895,0.78383 -2.99982,1.361156 -0.98969,0.577321 -1.94846,1.236933 -2.8763,1.979208 -0.90722,0.721654 -1.72161,1.474237 -2.44327,2.257743 -0.70103,0.762894 -1.26819,1.515469 -1.70118,2.257742 -0.43297,0.742275 -0.66981,1.412274 -0.71107,2.010214 -0.0206,0.453607 0.062,0.845222 0.24753,1.175123 0.20618,0.30928 0.4638,0.56741 0.77308,0.773594 0.30928,0.185568 0.64947,0.319564 1.02061,0.402045 0.39175,0.06187 0.75272,0.0925 1.08262,0.0925 0.3299,-0.02062 0.61815,-0.08242 0.86558,-0.185518 0.24741,-0.103093 0.40219,-0.247481 0.46405,-0.433049 -0.78351,0.123714 -1.24732,-0.02068 -1.39164,-0.433046 -0.14434,-0.412375 -0.0311,-0.979019 0.34003,-1.700673 0.37114,-0.721654 0.95907,-1.536041 1.7632,-2.443261 0.82474,-0.907227 1.80377,-1.793806 2.9378,-2.659787 -0.10309,0.226806 -0.27812,0.710875 -0.52555,1.453142 -0.24742,0.721654 -0.55697,1.598364 -0.92811,2.629297 -0.37113,1.010319 -0.79339,2.123347 -1.26762,3.339848 -0.47423,1.216499 -0.97958,2.42302 -1.51567,3.6189 -0.51547,1.195887 -1.05147,2.340078 -1.60817,3.432865 -0.53608,1.072174 -1.08247,1.989918 -1.63918,2.752805 -0.53608,0.742272 -1.06221,1.288655 -1.57768,1.639175 -0.494854,0.329859 -0.958664,0.350155 -1.391644,0.06149 -0.18558,0.226806 -0.2266,0.453771 -0.12351,0.68058 0.10309,0.247419 0.29889,0.463999 0.58756,0.64957 0.28866,0.185568 0.64963,0.319572 1.082624,0.402045 0.45361,0.103132 0.91741,0.123878 1.39165,0.06201 0.47422,-0.04124 0.94842,-0.185622 1.42265,-0.433049 0.47423,-0.24742 0.88662,-0.618781 1.23713,-1.113626 0.24743,-0.35052 0.50504,-0.752523 0.77308,-1.20613 0.26805,-0.474231 0.53605,-0.969195 0.80409,-1.484662 0.26805,-0.536088 0.51579,-1.072091 0.74259,-1.608171 0.24743,-0.556708 0.47388,-1.103091 0.68006,-1.639176 1.01031,0.515466 1.98986,0.659855 2.93832,0.433049 0.96908,-0.226801 1.87644,-0.690608 2.7218,-1.391648 0.86599,-0.701032 1.66998,-1.567357 2.41226,-2.59829 0.74227,-1.051555 1.40188,-2.133941 1.9792,-3.247348 0.59794,-1.113406 1.08252,-2.195793 1.45366,-3.247347 0.39175,-1.051552 0.67015,-1.948524 0.83509,-2.690792 0.1031,-0.556707 0.0309,-1.144121 -0.21652,-1.762683 -0.24743,-0.63918 -0.61826,-1.227114 -1.11311,-1.763199 -0.47424,-0.53608 -1.0414,-0.979115 -1.70119,-1.329635 -0.6598,-0.371152 -1.3298,-0.566959 -2.01021,-0.58756 z m 1.22421,2.03295 c 0.20941,-0.0048 0.3786,0.01822 0.50747,0.06976 0.32991,0.164954 0.50546,0.505142 0.52606,1.020609 0.0206,0.515466 -0.062,1.144442 -0.24753,1.886706 -0.18557,0.721654 -0.46395,1.525651 -0.83509,2.412257 -0.35051,0.8866 -0.75252,1.783572 -1.20613,2.690791 -0.6598,1.278361 -1.31941,2.42307 -1.97921,3.433384 -0.63918,0.989698 -1.25776,1.804088 -1.8557,2.443261 -0.59794,0.618561 -1.1651,1.051203 -1.70118,1.298628 -0.51547,0.226827 -0.97928,0.216939 -1.39165,-0.03049 0.14433,-0.30928 0.32975,-0.752832 0.55655,-1.330151 0.22681,-0.597942 0.47404,-1.257554 0.74208,-1.979207 0.28866,-0.742276 0.58782,-1.515629 0.8971,-2.319756 0.30928,-0.824746 0.60844,-1.618356 0.8971,-2.38125 0.28866,-0.762894 0.55666,-1.464058 0.80409,-2.103231 0.24742,-0.63918 0.45361,-1.144529 0.61857,-1.515671 0.0825,-0.164946 0.0929,-0.339981 0.031,-0.525547 -0.0412,-0.206187 -0.1342,-0.39212 -0.27854,-0.557072 -0.12371,-0.185568 -0.27848,-0.339826 -0.46405,-0.46354 -0.16494,-0.123706 -0.31972,-0.185518 -0.46405,-0.185518 0.45361,-0.309279 0.94857,-0.587663 1.48466,-0.835091 0.53608,-0.268038 1.05182,-0.484618 1.54668,-0.649573 0.51546,-0.185539 0.97927,-0.298762 1.39164,-0.340029 0.15464,-0.0232 0.29449,-0.03637 0.42013,-0.03928 z m 6.29833,3.746024 c -0.0409,3.2e-4 -0.0818,0.0016 -0.123,0.0041 -0.32989,0 -0.55686,0.09296 -0.68057,0.278535 -0.0619,0.123709 -0.14444,0.298744 -0.24753,0.52555 -0.1031,0.226806 -0.20594,0.484936 -0.30903,0.773597 -0.10309,0.268046 -0.20645,0.566692 -0.30954,0.896585 -0.0825,0.30928 -0.14425,0.608436 -0.18552,0.897104 -0.0206,0.164947 0.0516,0.31972 0.21653,0.464053 0.18556,0.144328 0.39175,0.257559 0.61856,0.340032 0.24742,0.06187 0.48478,0.08261 0.71159,0.06201 0.24742,-0.02062 0.43284,-0.113588 0.55655,-0.278535 0.1031,-0.185565 0.22671,-0.402145 0.37104,-0.649573 0.14433,-0.247425 0.28872,-0.494654 0.43305,-0.742074 0.14433,-0.268047 0.27833,-0.515273 0.40204,-0.742072 0.14432,-0.247427 0.24767,-0.433358 0.30954,-0.557072 0.12371,-0.206187 0.0822,-0.412379 -0.12402,-0.618567 -0.20619,-0.206187 -0.47419,-0.370832 -0.80409,-0.494543 -0.27062,-0.108233 -0.5492,-0.161406 -0.8356,-0.159165 z m 14.6916,1.526005 c -0.0725,9.66e-4 -0.14331,0.0094 -0.2129,0.02481 -0.18557,0.04124 -0.32996,0.154464 -0.43305,0.340032 -0.49485,0.845365 -1.0002,1.804135 -1.51567,2.876309 -0.34249,0.712372 -0.6708,1.453031 -0.98599,2.220021 -0.10613,-0.06035 -0.21953,-0.09959 -0.34003,-0.11679 -0.12371,-0.02061 -0.22655,0.01054 -0.30902,0.09302 -0.39176,0.804135 -0.9075,1.628907 -1.54668,2.47427 -0.63918,0.845365 -1.2884,1.607812 -1.9482,2.28823 -0.65979,0.659794 -1.29915,1.196314 -1.91771,1.608688 -0.59794,0.412387 -1.06175,0.587417 -1.39165,0.52555 -0.22682,-0.04124 -0.35043,-0.216271 -0.37104,-0.52555 -0.0206,-0.329898 1.5e-4,-0.701254 0.062,-1.113626 0.0618,-0.412374 0.1543,-0.814374 0.27802,-1.20613 0.12371,-0.412371 0.23745,-0.721921 0.34054,-0.928108 0.37114,0.16492 0.71133,0.268275 1.02061,0.309542 0.30928,0.04123 0.66973,0.01008 1.08211,-0.09302 0.57732,-0.185566 1.09306,-0.546018 1.54667,-1.082104 0.47424,-0.556707 0.86585,-1.14464 1.17512,-1.763202 0.3299,-0.639177 0.57764,-1.247372 0.7426,-1.824693 0.18556,-0.577321 0.27801,-0.979321 0.27801,-1.206127 0.0412,-0.474234 -0.18572,-0.865844 -0.68057,-1.175123 -0.35052,-0.206187 -0.66994,-0.392126 -0.9586,-0.557072 -0.26805,-0.185566 -0.53605,-0.31957 -0.80409,-0.402043 -0.26804,-0.103079 -0.52566,-0.144108 -0.77308,-0.123507 -0.24742,0 -0.51542,0.07219 -0.80408,0.216524 -0.47423,0.268042 -0.97958,0.690814 -1.51567,1.26814 -0.53609,0.577321 -1.05131,1.24732 -1.54616,2.010214 -0.27439,0.441399 -0.53457,0.900745 -0.78135,1.376659 -0.0676,0.03586 -0.1299,0.09164 -0.18552,0.1695 -0.5567,0.989693 -1.0927,1.876788 -1.60817,2.660301 -0.51546,0.783508 -0.97927,1.42235 -1.39164,1.917197 -0.39176,0.494845 -0.72157,0.835036 -0.98961,1.020609 -0.26804,0.164941 -0.44359,0.134305 -0.52606,-0.0925 -0.12372,-0.309279 -0.01,-0.979797 0.34054,-2.01073 0.35052,-1.051552 1.01013,-2.504776 1.97921,-4.360458 0.10309,-0.226798 0.0517,-0.443386 -0.15451,-0.649573 -0.20619,-0.206184 -0.4638,-0.371345 -0.77308,-0.495059 -0.30928,-0.123714 -0.62921,-0.185518 -0.95911,-0.185518 -0.30928,0 -0.51548,0.08258 -0.61857,0.247531 -0.3299,0.536085 -0.64932,1.185307 -0.9586,1.948201 -0.30928,0.742273 -0.58767,1.505241 -0.83509,2.288749 -0.26805,0.762892 -0.47424,1.495213 -0.61857,2.196248 -0.16496,0.680413 -0.25793,1.226802 -0.27853,1.639176 -0.0206,0.329901 0.0724,0.628547 0.27853,0.896585 0.20619,0.247428 0.4638,0.453621 0.77308,0.618567 0.30928,0.144307 0.63909,0.237271 0.98961,0.278538 0.35052,0.04123 0.66006,0.01008 0.9281,-0.09302 0.433,-0.185568 0.91758,-0.587568 1.45366,-1.20613 0.53493,-0.594357 1.05034,-1.256239 1.54719,-1.983856 -0.0355,0.353084 -0.0437,0.695047 -0.0243,1.02526 0.0412,0.680419 0.25782,1.226802 0.64957,1.639176 0.18557,0.185565 0.42292,0.381373 0.71158,0.58756 0.28866,0.206187 0.60809,0.39161 0.9586,0.556556 0.35052,0.144365 0.7011,0.237334 1.05162,0.278535 0.35051,0.04124 0.68032,-0.02057 0.9896,-0.185518 0.6598,-0.371141 1.3298,-0.845333 2.01021,-1.422651 0.68042,-0.577329 1.33016,-1.216681 1.94872,-1.917713 0.35906,-0.406932 0.69313,-0.828252 1.00356,-1.262973 -0.0591,0.203933 -0.11698,0.408295 -0.1726,0.6134 -0.35052,1.216506 -0.61852,2.381469 -0.80409,3.494878 -0.0412,0.226806 0.0517,0.443384 0.27854,0.649571 0.22681,0.206187 0.4948,0.371353 0.80408,0.495062 0.30929,0.123711 0.60793,0.185518 0.89659,0.185518 0.26804,-0.02062 0.43319,-0.144238 0.49506,-0.371036 0.45361,-1.855682 1.0722,-3.474583 1.8557,-4.856036 0.78351,-1.402066 1.72151,-2.701033 2.8143,-3.896921 0.0206,0.412375 0.0206,0.824762 0,1.237134 -0.0206,0.391755 0.0209,0.763108 0.12402,1.113628 0.0412,0.206188 0.21627,0.391608 0.52555,0.556554 0.3299,0.144336 0.68048,0.257559 1.05162,0.340032 0.37113,0.08247 0.71133,0.113617 1.02061,0.09302 0.001,-9e-5 0.003,-4.21e-4 0.004,-5.16e-4 -0.0957,0.318323 -0.18781,0.637918 -0.27492,0.959115 -0.35052,1.216506 -0.61852,2.381469 -0.80408,3.494878 -0.0412,0.226806 0.0517,0.443384 0.27853,0.649571 0.22681,0.206187 0.49481,0.371353 0.80409,0.495062 0.30928,0.123711 0.60844,0.185518 0.8971,0.185518 0.26804,-0.02062 0.43268,-0.144238 0.49455,-0.371036 0.4536,-1.855682 1.07218,-3.474583 1.8557,-4.856036 0.7835,-1.402066 1.7215,-2.701033 2.81429,-3.896921 0.0206,0.412375 0.0206,0.824762 0,1.237134 -0.0206,0.391755 0.0209,0.763108 0.12403,1.113628 0.0412,0.206188 0.21627,0.391608 0.52555,0.556554 0.3299,0.144336 0.68047,0.257559 1.05161,0.340032 0.37114,0.08247 0.71133,0.113617 1.02061,0.09302 0.32987,-0.02062 0.51529,-0.11358 0.55656,-0.278535 0.0206,-0.103108 3.7e-4,-0.164917 -0.0615,-0.185518 -0.0412,-0.04127 -0.10304,-0.0719 -0.18551,-0.0925 -0.0619,-0.04123 -0.13405,-0.09316 -0.21653,-0.15503 -0.0619,-0.08247 -0.10342,-0.216476 -0.12402,-0.402042 -0.0824,-0.845368 -0.0617,-1.731947 0.062,-2.659787 0.0618,-0.639178 0.11325,-1.113372 0.15451,-1.422652 0.0412,-0.309279 0.0106,-0.546121 -0.0925,-0.711067 -0.10309,-0.164952 -0.2989,-0.298951 -0.58756,-0.402043 -0.28866,-0.103092 -0.72183,-0.268261 -1.29914,-0.495059 -0.28867,-0.123682 -0.49487,-0.164708 -0.61857,-0.123507 -0.12372,0.02062 -0.27849,0.174876 -0.46406,0.463536 -0.0412,0.06186 -0.15446,0.237408 -0.34003,0.526066 -0.16495,0.28866 -0.36076,0.587306 -0.58756,0.896588 -0.24743,0.371139 -0.52581,0.773139 -0.83509,1.206127 0.3299,-0.804127 0.64932,-1.51516 0.9586,-2.133719 0.30928,-0.63918 0.59805,-1.247375 0.86609,-1.824696 0.14433,-0.30928 0.11317,-0.577279 -0.093,-0.804085 -0.18557,-0.24742 -0.51537,-0.453612 -0.98961,-0.618566 -0.20618,-0.0618 -0.40199,-0.0722 -0.58756,-0.03101 -0.18556,0.04124 -0.32995,0.154464 -0.43305,0.340032 -0.49484,0.845365 -0.99968,1.804135 -1.51515,2.876309 -0.51547,1.072168 -1.00004,2.20649 -1.45366,3.402378 -0.25438,0.659074 -0.48887,1.324731 -0.70435,1.996776 -0.0339,-0.02431 -0.0691,-0.05081 -0.10748,-0.07958 -0.0619,-0.08247 -0.10343,-0.216476 -0.12403,-0.402042 -0.0824,-0.845368 -0.0617,-1.731947 0.062,-2.659787 0.0618,-0.639178 0.11325,-1.113372 0.15452,-1.422652 0.0412,-0.309279 0.0106,-0.546121 -0.0925,-0.711067 -0.1031,-0.164952 -0.29942,-0.298951 -0.58808,-0.402043 -0.28866,-0.103092 -0.72131,-0.268261 -1.29863,-0.495059 -0.28866,-0.123682 -0.49485,-0.164708 -0.61857,-0.123507 -0.12371,0.02062 -0.27849,0.174876 -0.46405,0.463536 -0.0412,0.06186 -0.15447,0.237408 -0.34003,0.526066 -0.16495,0.28866 -0.36076,0.587306 -0.58756,0.896588 -0.24743,0.371139 -0.52581,0.773139 -0.83509,1.206127 0.32989,-0.804127 0.64931,-1.51516 0.95859,-2.133719 0.30928,-0.63918 0.59806,-1.247375 0.8661,-1.824696 0.14432,-0.30928 0.11317,-0.577279 -0.093,-0.804085 -0.18556,-0.24742 -0.51537,-0.453612 -0.9896,-0.618566 -0.12887,-0.03862 -0.25384,-0.05742 -0.37466,-0.05581 z m -76.368464,0.63872 c -0.03125,6.43e-4 -0.06261,0.0021 -0.09354,0.0047 -0.247423,0 -0.515422,0.07219 -0.804085,0.216524 -0.474228,0.268042 -0.979067,0.690814 -1.515152,1.26814 -0.536086,0.577321 -1.051827,1.24732 -1.546675,2.010214 -0.474231,0.762887 -0.907391,1.577274 -1.299146,2.443261 -0.391756,0.865986 -0.680011,1.701146 -0.865579,2.505273 -0.20619,0.804127 -0.288772,1.55671 -0.247531,2.257745 0.04124,0.680419 0.257818,1.226802 0.649573,1.639176 0.185568,0.185565 0.422404,0.381373 0.711068,0.58756 0.28866,0.206187 0.608597,0.39161 0.959114,0.556556 0.350517,0.144365 0.70058,0.237334 1.051097,0.278535 0.350517,0.04124 0.680842,-0.02057 0.990121,-0.185518 0.659797,-0.371141 1.329799,-0.845333 2.010214,-1.422651 0.455711,-0.38667 0.897017,-0.801693 1.324983,-1.243854 -0.05193,0.286758 -0.08946,0.567674 -0.111103,0.841809 -0.04124,0.309282 0.08237,0.60792 0.371035,0.896588 0.268044,0.268039 0.587463,0.495012 0.958599,0.680577 0.371136,0.164987 0.74249,0.267825 1.113626,0.309026 0.391755,0.04124 0.680529,-0.03096 0.866098,-0.216525 0.391755,-0.371139 0.762592,-0.773133 1.11311,-1.206127 0.371136,-0.432987 0.721717,-0.865637 1.051615,-1.29863 0.329899,-0.432993 0.62906,-0.834993 0.897104,-1.206127 0.288661,-0.391761 0.55666,-0.731949 0.804085,-1.020609 -0.14433,0.474234 -0.278331,0.999845 -0.402042,1.577165 -0.123717,0.577319 -0.165264,1.03074 -0.124024,1.360639 0.02062,0.247427 0.123973,0.505039 0.309542,0.77308 0.206187,0.247428 0.443023,0.464005 0.711067,0.649574 0.288661,0.164938 0.59821,0.27868 0.928108,0.340547 0.350518,0.04123 0.680323,-0.0107 0.989605,-0.155029 0.577321,-0.268047 1.164741,-0.721469 1.762684,-1.360641 0.555439,-0.612902 1.092962,-1.288791 1.61282,-2.026232 -0.08488,0.268324 -0.167002,0.532727 -0.243914,0.789098 -0.247422,0.804127 -0.433358,1.453872 -0.557069,1.948717 -0.06186,0.185568 0.03111,0.370991 0.278534,0.556557 0.226807,0.185573 0.494806,0.329953 0.804085,0.433048 0.309279,0.103093 0.618829,0.154512 0.928108,0.154512 0.309282,-0.02062 0.515475,-0.123457 0.618569,-0.309026 0.226804,-0.474231 0.546225,-1.072552 0.958596,-1.794205 0.432994,-0.721651 0.8968,-1.453457 1.391648,-2.19573 0.515466,-0.742267 1.031208,-1.443431 1.546675,-2.103231 0.515466,-0.659799 0.979273,-1.16464 1.391647,-1.515155 -0.06186,0.144328 -0.175083,0.463746 -0.340032,0.958599 -0.14433,0.474226 -0.299106,1.010232 -0.464055,1.608172 -0.14433,0.597939 -0.258072,1.195742 -0.340548,1.793687 -0.08247,0.59794 -0.08247,1.072139 0,1.422654 0.04124,0.206187 0.196014,0.412379 0.464055,0.618566 0.268044,0.206188 0.577591,0.371346 0.928108,0.49506 0.350518,0.123687 0.71097,0.206264 1.082107,0.247531 0.371136,0.02061 0.701458,-0.04119 0.990118,-0.185518 0.432993,-0.226809 0.8968,-0.608547 1.391647,-1.144635 0.515467,-0.536086 1.010436,-1.133896 1.484665,-1.793687 0.494847,-0.680421 0.948266,-1.381578 1.360641,-2.103232 0.432993,-0.721653 0.793964,-1.381267 1.082614,-1.979207 0.0206,-0.06186 -0.0209,-0.144436 -0.12402,-0.247531 -0.1031,-0.123711 -0.23708,-0.226552 -0.402041,-0.309026 -0.14433,-0.08249 -0.298587,-0.134426 -0.463536,-0.155027 -0.144333,-0.02062 -0.24769,0.04119 -0.309542,0.185518 -0.329898,0.618559 -0.701254,1.237141 -1.113628,1.8557 -0.412372,0.618562 -0.845019,1.196115 -1.298628,1.732195 -0.432993,0.536086 -0.876541,1.010278 -1.33015,1.422652 -0.453613,0.412374 -0.876388,0.73179 -1.26814,0.958598 0,-0.432993 0.09297,-0.958606 0.278534,-1.577165 0.185569,-0.618561 0.402148,-1.257919 0.649574,-1.917713 0.247425,-0.680418 0.505036,-1.319255 0.773078,-1.917195 0.268044,-0.618561 0.484624,-1.134303 0.649573,-1.546677 0.103095,-0.247425 0.06206,-0.494652 -0.123505,-0.742072 -0.164949,-0.268046 -0.402307,-0.495011 -0.711586,-0.680579 -0.30928,-0.185553 -0.649473,-0.309171 -1.020609,-0.371036 -0.350518,-0.06186 -0.649679,-0.02083 -0.897102,0.123505 -0.371136,0.226808 -0.752364,0.505198 -1.144116,0.835091 -0.391756,0.329901 -0.783368,0.701254 -1.175123,1.113628 -0.371137,0.412375 -0.752877,0.855401 -1.144633,1.329635 -0.371136,0.474226 -0.721717,0.948941 -1.051615,1.42317 0.02062,-0.103095 0.103198,-0.299419 0.247531,-0.588079 0.164949,-0.288661 0.350366,-0.618472 0.556553,-0.989603 0.226806,-0.39176 0.453774,-0.804148 0.68058,-1.237136 0.247422,-0.453612 0.47439,-0.896641 0.680577,-1.329634 0.06186,-0.164947 -0.01034,-0.360754 -0.216524,-0.58756 -0.185568,-0.226806 -0.433308,-0.412745 -0.74259,-0.557073 -0.30928,-0.144332 -0.628698,-0.216524 -0.958596,-0.216524 -0.309282,0 -0.53625,0.144388 -0.68058,0.433049 -0.338982,0.593222 -0.657799,1.221107 -0.95808,1.882055 -0.13597,-0.0079 -0.231426,0.02452 -0.286287,0.09767 -1.237121,2.123729 -2.278476,3.731726 -3.123843,4.824513 -0.845365,1.092806 -1.474333,1.649582 -1.886704,1.670183 -0.14433,0 -0.226912,-0.165169 -0.247531,-0.495062 0,-0.329899 0.09297,-0.814478 0.278535,-1.453658 0.206187,-0.63918 0.51522,-1.422403 0.927592,-2.350244 0.432993,-0.92784 1.000154,-1.98997 1.701189,-3.185853 0.144327,-0.226806 0.123555,-0.46364 -0.06201,-0.711067 -0.16495,-0.268039 -0.391399,-0.495012 -0.680062,-0.680578 -0.28866,-0.185539 -0.598209,-0.298764 -0.928108,-0.340031 -0.309279,-0.04124 -0.535731,0.03095 -0.680061,0.216524 -0.247425,0.268041 -0.48478,0.546431 -0.711586,0.835091 -0.206185,0.268047 -0.422767,0.525661 -0.649571,0.773081 -0.350517,-0.206187 -0.680325,-0.41238 -0.989605,-0.618567 -0.309279,-0.226809 -0.618829,-0.391967 -0.928108,-0.495062 -0.309279,-0.123671 -0.6287,-0.164705 -0.958599,-0.123505 -0.329898,0.04124 -0.690866,0.216268 -1.082619,0.525548 -0.536085,0.453607 -1.082474,1.041548 -1.639178,1.763201 -0.09116,0.122709 -0.180025,0.247852 -0.268201,0.374137 -0.0059,-9.47e-4 -0.01167,-0.0023 -0.01757,-0.0031 -0.123714,-0.02061 -0.227068,0.01054 -0.309544,0.09302 -0.391753,0.804135 -0.906978,1.628907 -1.546159,2.47427 -0.639177,0.845365 -1.28892,1.607812 -1.948717,2.28823 -0.659797,0.659794 -1.298636,1.196314 -1.917194,1.608688 -0.597943,0.412387 -1.061749,0.587417 -1.391648,0.52555 -0.226803,-0.04124 -0.350933,-0.216271 -0.371554,-0.52555 -0.02061,-0.329898 1.59e-4,-0.701254 0.06201,-1.113626 0.06185,-0.412374 0.154823,-0.814374 0.278535,-1.20613 0.123711,-0.412371 0.236937,-0.721921 0.340032,-0.928108 0.371136,0.16492 0.711329,0.268275 1.020609,0.309542 0.309279,0.04123 0.670247,0.01008 1.082622,-0.09302 0.57732,-0.185566 1.092546,-0.546018 1.546158,-1.082104 0.474229,-0.556707 0.866357,-1.14464 1.175639,-1.763202 0.329899,-0.639177 0.577123,-1.247372 0.742072,-1.824693 0.185568,-0.577321 0.278537,-0.979321 0.278537,-1.206127 0.04124,-0.474234 -0.185732,-0.865844 -0.680579,-1.175123 -0.350518,-0.206187 -0.669936,-0.392126 -0.958596,-0.557072 -0.268044,-0.185566 -0.536562,-0.31957 -0.804603,-0.402043 -0.234538,-0.0902 -0.460793,-0.132654 -0.679546,-0.128159 z m 96.150724,0 c -0.0312,6.43e-4 -0.0621,0.0021 -0.093,0.0047 -0.24742,0 -0.51542,0.07219 -0.80408,0.216524 -0.47423,0.268042 -0.97959,0.690814 -1.51567,1.26814 -0.53609,0.577321 -1.05132,1.24732 -1.54616,2.010214 -0.47423,0.762887 -0.90739,1.577274 -1.29915,2.443261 -0.39175,0.865986 -0.68053,1.701146 -0.8661,2.505273 -0.20621,0.804127 -0.28879,1.55671 -0.24752,2.257745 0.0412,0.680419 0.25781,1.226802 0.64957,1.639176 0.18557,0.185565 0.42291,0.381373 0.71158,0.58756 0.28866,0.206187 0.60809,0.39161 0.9586,0.556556 0.35052,0.144365 0.70109,0.237334 1.05161,0.278535 0.35052,0.04124 0.68033,-0.02057 0.98961,-0.185518 0.6598,-0.371141 1.3298,-0.845333 2.01021,-1.422651 0.68042,-0.577329 1.33016,-1.216681 1.94872,-1.917713 0.61856,-0.701035 1.16495,-1.443231 1.63918,-2.226739 0.49484,-0.804132 0.87607,-1.608129 1.14411,-2.412254 0.0825,-0.144327 0.0929,-0.278331 0.031,-0.402045 -0.0618,-0.144332 -0.15482,-0.258072 -0.27854,-0.340547 -0.12371,-0.08249 -0.25771,-0.133911 -0.40204,-0.154512 -0.12371,-0.02061 -0.22655,0.01054 -0.30903,0.09302 -0.39175,0.804135 -0.90749,1.628907 -1.54667,2.47427 -0.63918,0.845365 -1.2884,1.607812 -1.9482,2.28823 -0.6598,0.659794 -1.29915,1.196314 -1.91771,1.608688 -0.59794,0.412387 -1.06175,0.587417 -1.39165,0.52555 -0.22683,-0.04124 -0.35044,-0.216271 -0.37104,-0.52555 -0.0206,-0.329898 1.5e-4,-0.701254 0.062,-1.113626 0.0618,-0.412374 0.1543,-0.814374 0.27801,-1.20613 0.12372,-0.412371 0.23746,-0.721921 0.34055,-0.928108 0.37114,0.16492 0.71133,0.268275 1.02061,0.309542 0.30928,0.04123 0.66973,0.01008 1.0821,-0.09302 0.57733,-0.185566 1.09308,-0.546018 1.54668,-1.082104 0.47423,-0.556707 0.86584,-1.14464 1.17512,-1.763202 0.3299,-0.639177 0.57712,-1.247372 0.74208,-1.824693 0.18556,-0.577321 0.27853,-0.979321 0.27853,-1.206127 0.0412,-0.474234 -0.18572,-0.865844 -0.68058,-1.175123 -0.35051,-0.206187 -0.66993,-0.392126 -0.95859,-0.557072 -0.26805,-0.185566 -0.53605,-0.31957 -0.80409,-0.402043 -0.23454,-0.0902 -0.46131,-0.132654 -0.68006,-0.128159 z m -95.471178,2.509925 c -0.04124,0.35052 -0.144077,0.773293 -0.309026,1.26814 -0.14433,0.494848 -0.350522,0.969039 -0.618567,1.422651 -0.247425,0.432994 -0.536199,0.793446 -0.866097,1.082107 -0.30928,0.288673 -0.649473,0.402412 -1.020609,0.340547 0,-0.103094 0.103354,-0.350832 0.309541,-0.74259 0.226806,-0.391755 0.484418,-0.814533 0.773081,-1.26814 0.309279,-0.453615 0.618313,-0.875868 0.927592,-1.267624 0.329898,-0.412371 0.597897,-0.690758 0.804085,-0.835091 z m 68.799418,0 c -0.0412,0.35052 -0.14408,0.773293 -0.30902,1.26814 -0.14433,0.494848 -0.35053,0.969039 -0.61857,1.422651 -0.24743,0.432994 -0.5362,0.793446 -0.8661,1.082107 -0.30928,0.288673 -0.64947,0.402412 -1.02061,0.340547 0,-0.103094 0.10284,-0.350832 0.30903,-0.74259 0.22681,-0.391755 0.48442,-0.814533 0.77308,-1.26814 0.30928,-0.453615 0.61883,-0.875868 0.92811,-1.267624 0.3299,-0.412371 0.5979,-0.690758 0.80408,-0.835091 z m 27.35182,0 c -0.0412,0.35052 -0.14408,0.773293 -0.30902,1.26814 -0.14434,0.494848 -0.35053,0.969039 -0.61857,1.422651 -0.24743,0.432994 -0.5362,0.793446 -0.8661,1.082107 -0.30928,0.288673 -0.64947,0.402412 -1.02061,0.340547 0,-0.103094 0.10284,-0.350832 0.30903,-0.74259 0.2268,-0.391755 0.48442,-0.814533 0.77308,-1.26814 0.30928,-0.453615 0.61883,-0.875868 0.92811,-1.267624 0.3299,-0.412371 0.59789,-0.690758 0.80408,-0.835091 z M 49.335628,53.208579 c -0.288661,0.659799 -0.608597,1.381736 -0.959115,2.165244 -0.350517,0.762891 -0.752517,1.566889 -1.206127,2.412254 -0.453612,0.824748 -0.979225,1.670298 -1.577165,2.536279 -0.577323,0.865987 -1.237454,1.711016 -1.979724,2.535762 -1.773205,1.979387 -3.206173,3.329781 -4.298963,4.051432 -1.09279,0.742275 -1.814208,0.990013 -2.164725,0.74259 -0.35052,-0.226806 -0.319874,-0.855771 0.0925,-1.886704 0.412371,-1.051555 1.237146,-2.350521 2.474267,-3.896921 0.618561,-0.762886 1.309335,-1.556504 2.072224,-2.38125 0.762892,-0.824746 1.55702,-1.618874 2.381766,-2.381766 0.845368,-0.762894 1.700787,-1.473927 2.566771,-2.133721 0.886602,-0.680419 1.752925,-1.268352 2.598291,-1.763199 z m 19.134232,1.228349 c 0.01933,6.4e-4 0.03829,0.0036 0.05633,0.0088 0.144332,0.04124 0.247171,0.154982 0.309025,0.340548 0.08247,0.164946 0.124023,0.350369 0.124023,0.556556 0,0.206187 -0.03117,0.350568 -0.09302,0.433049 -0.247425,0.371131 -0.566843,0.814168 -0.958598,1.329634 -0.391755,0.515467 -0.793755,1.031209 -1.206127,1.546675 -0.412374,0.515467 -0.814374,0.989658 -1.20613,1.422652 -0.371136,0.412374 -0.670298,0.71102 -0.897101,0.896585 0,-0.247425 0.09297,-0.618262 0.278535,-1.11311 0.185568,-0.515466 0.422407,-1.072242 0.711067,-1.670182 0.30928,-0.59794 0.659861,-1.206135 1.051616,-1.824694 0.412374,-0.618561 0.855922,-1.154557 1.33015,-1.608172 0.198456,-0.216461 0.364919,-0.32281 0.500229,-0.318325 z M 47.771382,79.732025 c -0.149484,-0.0052 -0.270502,0.02289 -0.363286,0.08475 -0.123711,0.08247 -0.29926,0.268412 -0.526066,0.557072 -0.206187,0.288658 -0.422767,0.618464 -0.649573,0.989603 -0.226803,0.371134 -0.463643,0.752364 -0.711068,1.144116 -0.226803,0.391753 -0.412223,0.742337 -0.556553,1.051616 -0.597943,-1.030933 -1.371296,-1.649513 -2.319756,-1.8557 -0.927841,-0.206187 -1.927646,-0.133996 -2.999817,0.216524 -1.051552,0.35052 -2.103294,0.928066 -3.154846,1.732193 -1.051552,0.783508 -1.969294,1.659699 -2.752805,2.628781 -0.783508,0.969073 -1.381315,1.959007 -1.793687,2.969326 -0.391755,0.989695 -0.474337,1.876279 -0.247531,2.659787 0.16495,0.577326 0.505143,1.061387 1.020609,1.453142 0.515467,0.391753 1.103403,0.742334 1.7632,1.051616 0.680418,0.288658 1.381061,0.567044 2.102715,0.835091 0.742272,0.24742 1.412787,0.536197 2.01073,0.866095 0.618559,0.309282 1.123397,0.670248 1.515152,1.082622 0.412374,0.412374 0.618567,0.917213 0.618567,1.515152 0,0.556708 -0.236837,1.155026 -0.711068,1.794209 -0.474228,0.63918 -1.082421,1.25776 -1.824693,1.8557 -0.742273,0.57732 -1.556661,1.09254 -2.443263,1.54616 -0.886603,0.4536 -1.742538,0.78341 -2.567284,0.9896 -0.845365,0.18555 -1.494592,0.19596 -1.948201,0.031 -0.432994,-0.18557 -0.732155,-0.47435 -0.897105,-0.8661 -0.144327,-0.41238 -0.175492,-0.88657 -0.09302,-1.42265 0.08247,-0.55671 0.237249,-1.11349 0.464055,-1.67018 0.247422,-0.55671 0.546584,-1.082324 0.897101,-1.577169 0.350518,-0.494847 0.701099,-0.886463 1.051616,-1.175123 0.103092,-0.06186 0.133742,-0.144436 0.0925,-0.247528 -0.02062,-0.103082 -0.08243,-0.185666 -0.185518,-0.247531 -0.103095,-0.08247 -0.226706,-0.123508 -0.371038,-0.123508 -0.144331,-0.02061 -0.267944,0.01003 -0.371036,0.0925 -0.577324,0.556707 -1.154872,1.237094 -1.732193,2.041218 -0.556704,0.804131 -1.041286,1.649681 -1.453658,2.536281 -0.247425,0.53609 -0.443232,1.07208 -0.587563,1.60817 -0.14433,0.53609 -0.216524,1.05183 -0.216524,1.54668 0,0.47422 0.09297,0.90687 0.278537,1.29862 0.185569,0.39176 0.484212,0.72157 0.896586,0.98961 0.350517,0.20619 0.783677,0.36096 1.299147,0.46405 0.515466,0.10307 1.144434,0.13422 1.886704,0.093 0.865983,-0.0619 1.762953,-0.23741 2.690794,-0.52606 0.927838,-0.28866 1.835195,-0.6595 2.721797,-1.11312 0.886601,-0.43299 1.721247,-0.92796 2.504755,-1.48466 0.783511,-0.55671 1.474285,-1.13425 2.072225,-1.73219 0.597942,-0.59794 1.072136,-1.19575 1.422654,-1.79369 0.371133,-0.59795 0.566941,-1.15472 0.58756,-1.670186 0.06186,-1.051547 -0.133951,-1.927738 -0.58756,-2.628778 -0.453612,-0.721654 -1.04103,-1.319464 -1.762684,-1.79369 -0.701034,-0.494848 -1.47439,-0.907235 -2.319755,-1.237134 -0.845365,-0.35052 -1.62859,-0.680323 -2.350243,-0.989605 -0.701035,-0.329893 -1.278584,-0.659701 -1.732196,-0.989602 -0.432988,-0.35052 -0.618408,-0.78368 -0.556553,-1.299147 0.06185,-0.515466 0.298693,-1.103405 0.711067,-1.763199 0.432991,-0.659799 0.948733,-1.309021 1.546675,-1.948201 0.597942,-0.659794 1.236779,-1.278374 1.917195,-1.8557 0.701034,-0.577321 1.361164,-1.051513 1.979726,-1.422654 0.618559,-0.391753 1.144172,-0.63898 1.577163,-0.742072 0.453612,-0.123714 0.731998,-0.05204 0.835091,0.216006 0.185565,0.494848 0.216731,1.072396 0.09302,1.732195 -0.103093,0.639173 -0.268253,1.319565 -0.49506,2.041218 -0.226806,0.70104 -0.464161,1.402199 -0.711583,2.103231 -0.226809,0.701035 -0.370679,1.340393 -0.432533,1.917714 -0.06185,0.474234 0.01034,0.906875 0.216524,1.298628 0.226806,0.371133 0.494806,0.680682 0.804085,0.928108 0.309282,0.226795 0.6287,0.371184 0.958599,0.433048 0.329898,0.04124 0.5979,-0.03096 0.804084,-0.216524 -0.226801,-0.226806 -0.309382,-0.618932 -0.247528,-1.175639 0.08247,-0.577318 0.258022,-1.236932 0.526066,-1.979205 0.28866,-0.762894 0.649112,-1.566897 1.082103,-2.412256 0.432993,-0.865987 0.886928,-1.690762 1.361157,-2.47427 0.494848,-0.804132 0.989817,-1.526069 1.484664,-2.165242 0.494848,-0.659799 0.937879,-1.164632 1.329635,-1.515152 0.247428,-0.185568 0.2682,-0.433311 0.06201,-0.74259 -0.185568,-0.309279 -0.463955,-0.587671 -0.835091,-0.835091 -0.350518,-0.268047 -0.732261,-0.463849 -1.144635,-0.58756 -0.206185,-0.07216 -0.383816,-0.110607 -0.5333,-0.115756 z m 47.520614,1.175121 c -0.52578,-0.0051 -1.05139,0.07483 -1.57717,0.239779 -1.03093,0.329901 -2.03073,0.897061 -2.99981,1.701188 -0.96908,0.804127 -1.88682,1.803929 -2.752807,2.999817 -0.845365,1.19588 -1.608333,2.494854 -2.288749,3.896918 -0.659797,1.402075 -1.226957,2.84543 -1.701186,4.32997 -0.474231,1.484545 -0.804037,2.9279 -0.989605,4.329967 -0.164947,1.154647 -0.216366,2.247425 -0.154512,3.278355 0.04124,1.03093 0.206399,1.94868 0.49506,2.7528 0.309279,0.78352 0.741926,1.42235 1.298628,1.9172 0.577323,0.51546 1.309647,0.81463 2.196248,0.8971 1.381453,0.16495 2.721453,-0.0412 4.020423,-0.61857 1.3196,-0.5567 2.59779,-1.39186 3.83491,-2.50527 1.00189,-0.88692 1.97739,-1.92014 2.92696,-3.0949 -0.004,0.0108 -0.008,0.0223 -0.0119,0.0331 -0.37113,1.03094 -0.63914,1.85571 -0.80409,2.47427 -0.0619,0.20619 0.0306,0.40199 0.27803,0.58756 0.2268,0.18557 0.50519,0.34035 0.83508,0.46405 0.30929,0.1031 0.61883,0.15452 0.92811,0.15452 0.28867,-0.0206 0.48447,-0.13385 0.58756,-0.34003 0.22681,-0.47424 0.567,-1.09282 1.020614,-1.8557 0.47423,-0.7629 0.97959,-1.54664 1.51567,-2.35077 0.53609,-0.804122 1.07209,-1.556698 1.60817,-2.257738 0.55671,-0.701034 1.04129,-1.226653 1.45366,-1.577165 -0.0412,0.144327 -0.14459,0.442973 -0.30954,0.896586 -0.16495,0.453606 -0.33998,0.958963 -0.52555,1.51567 -0.16495,0.556708 -0.29895,1.113481 -0.40204,1.670187 -0.10308,0.5567 -0.11349,1.01012 -0.031,1.36064 0.0619,0.20618 0.22702,0.41238 0.49506,0.61856 0.26805,0.20619 0.57708,0.37135 0.9276,0.49506 0.35052,0.12369 0.71148,0.20627 1.08261,0.24753 0.37115,0.0206 0.69056,-0.0412 0.9586,-0.18551 0.39176,-0.20619 0.8353,-0.55678 1.33016,-1.05162 0.49484,-0.49486 0.99968,-1.08279 1.51515,-1.7632 0.008,-0.0111 0.0164,-0.0225 0.0248,-0.0336 -0.0703,0.45589 -0.0868,0.84937 -0.0481,1.17822 0.1031,0.51547 0.43342,0.96889 0.99013,1.36064 0.26804,0.18557 0.54643,0.34034 0.83508,0.46406 0.30929,0.12371 0.63909,0.23693 0.98961,0.34003 0.70104,0.16496 1.27807,0.15456 1.73168,-0.031 1.85568,-0.96908 3.57742,-2.77288 5.16506,-5.412071 1.56702,-2.639192 2.42295,-4.928095 2.56728,-6.866247 1.03093,0.35052 1.62874,0.907296 1.79369,1.670182 0.12371,0.742273 -0.0311,1.66001 -0.46405,2.752805 -0.16496,0.412371 -0.36076,0.876178 -0.58757,1.391645 -0.20618,0.515466 -0.45341,1.082627 -0.74207,1.701188 -0.47423,1.010315 -0.897,1.968578 -1.26814,2.875798 -0.35051,0.8866 -0.64968,1.72176 -0.8971,2.50527 -0.30928,1.2165 -0.14412,2.17528 0.49506,2.87631 0.57732,0.74227 1.23693,1.17543 1.97921,1.29914 0.72165,0.18557 1.24726,0.0412 1.57716,-0.43304 -0.78349,-0.0619 -1.16472,-0.59786 -1.14412,-1.60818 0.0412,-0.51546 0.13421,-1.07224 0.27854,-1.67018 0.14433,-0.61856 0.35052,-1.28856 0.61857,-2.01021 0.28866,-0.72165 0.56705,-1.42281 0.83509,-2.10323 0.28866,-0.701033 0.57691,-1.391812 0.86558,-2.072225 0.30928,-0.721654 0.57728,-1.361006 0.80408,-1.917714 0.22681,-0.556699 0.39197,-1.010121 0.49506,-1.360641 0.37114,-1.567018 0.21637,-2.731989 -0.46405,-3.494875 -0.70103,-0.762895 -1.68007,-1.453666 -2.93781,-2.072225 -0.32989,-0.185568 -0.61867,-0.35021 -0.86609,-0.494543 -0.22681,-0.164947 -0.39197,-0.309335 -0.49506,-0.433049 -0.26804,-0.268042 -0.47424,-0.546426 -0.61857,-0.835091 -0.14433,-0.268042 -0.40195,-0.329851 -0.77308,-0.185518 -0.30928,0.103092 -0.63908,0.319677 -0.9896,0.649573 -0.35051,0.309279 -0.59774,0.649467 -0.74208,1.020609 -0.12371,0.309279 -0.0619,0.587153 0.18552,0.834573 0.70104,0.597947 0.89684,1.515684 0.58756,2.752804 -0.16494,0.639172 -0.39192,1.288918 -0.68058,1.948717 -0.26804,0.63918 -0.60823,1.298795 -1.02061,1.979208 -0.82474,1.278361 -1.67029,2.350362 -2.53627,3.216341 -0.84537,0.824746 -1.54601,1.154556 -2.10272,0.989606 -0.37113,-0.24743 -0.3301,-1.15427 0.12351,-2.721283 0.24743,-0.783513 0.56684,-1.618673 0.9586,-2.505273 0.39175,-0.886606 0.87633,-1.824604 1.45365,-2.814299 0.16495,-0.35052 0.0309,-0.680839 -0.40204,-0.990119 -0.41237,-0.350506 -0.85541,-0.556701 -1.32963,-0.618566 -0.49485,-0.123709 -0.8662,-0.04113 -1.11363,0.247528 -0.43299,0.556699 -0.88641,1.464059 -1.36064,2.721798 -0.0677,0.154638 -0.13273,0.309417 -0.19585,0.464055 -0.0515,0.03593 -0.0925,0.08696 -0.12144,0.154512 -0.37114,0.680421 -0.76275,1.360805 -1.17513,2.04122 -0.41237,0.680413 -0.84553,1.319766 -1.29914,1.917711 -0.45361,0.577321 -0.91741,1.092546 -1.39165,1.546156 -0.47422,0.43299 -0.94842,0.77319 -1.42265,1.02061 0,-0.43299 0.093,-0.93783 0.27854,-1.515151 0.20618,-0.597939 0.43264,-1.206135 0.68006,-1.824693 0.26804,-0.639181 0.53604,-1.247886 0.80408,-1.825213 0.28866,-0.57732 0.52601,-1.071774 0.71159,-1.484148 0.12368,-0.268039 0.10293,-0.536038 -0.062,-0.804085 -0.16494,-0.268038 -0.40178,-0.495011 -0.71106,-0.680577 -0.30928,-0.185608 -0.64947,-0.298831 -1.02061,-0.340032 -0.35051,-0.06186 -0.66006,-0.01044 -0.92811,0.154512 -0.37113,0.226809 -0.76275,0.546227 -1.17512,0.958598 -0.39176,0.391753 -0.79376,0.835306 -1.20613,1.330153 -0.39176,0.494845 -0.78389,1.010071 -1.17564,1.546159 -0.39175,0.515467 -0.7522,1.010436 -1.0821,1.484662 0.51546,-1.505159 1.13404,-2.958907 1.8557,-4.360974 0.72165,-1.402072 1.43268,-2.660007 2.13372,-3.773413 0.72165,-1.113406 1.37139,-2.030632 1.94872,-2.752286 0.59794,-0.721653 1.03059,-1.144426 1.29862,-1.26814 0.14435,-0.206187 0.13446,-0.453413 -0.0305,-0.742074 -0.16496,-0.28866 -0.4127,-0.52601 -0.74259,-0.711584 -0.3299,-0.206218 -0.69087,-0.329837 -1.08263,-0.371035 -0.39175,-0.06186 -0.72156,0.04098 -0.9896,0.309022 -0.49485,0.453607 -1.04123,1.154772 -1.63918,2.103232 -0.57732,0.92784 -1.17512,1.989965 -1.79369,3.185853 -0.59794,1.17526 -1.19574,2.432682 -1.79368,3.772894 -0.13279,0.303509 -0.26277,0.604677 -0.3912,0.903822 -0.263384,0.440553 -0.577604,0.93167 -0.946714,1.477947 -0.49485,0.742273 -1.06149,1.51511 -1.70067,2.319237 -0.63918,0.804127 -1.34034,1.608644 -2.10323,2.412774 -0.74227,0.78351 -1.50524,1.47428 -2.28875,2.07223 -0.7835,0.59794 -1.57711,1.07213 -2.38125,1.42265 -0.7835,0.35051 -1.53609,0.48451 -2.257742,0.40204 -0.78351,-0.0825 -1.340283,-0.45383 -1.670182,-1.11363 -0.329901,-0.68041 -0.484674,-1.53583 -0.464055,-2.56677 0.02062,-1.03093 0.185782,-2.195893 0.495062,-3.494873 0.329898,-1.298975 0.742286,-2.618719 1.237133,-3.958931 0.515469,-1.340215 1.082114,-2.639179 1.700674,-3.896921 0.63917,-1.278353 1.28892,-2.40229 1.94872,-3.371371 0.6598,-0.989693 1.29915,-1.772918 1.91771,-2.350244 0.63917,-0.597918 1.20582,-0.886695 1.70067,-0.866095 0.49485,0.04123 0.80439,0.33001 0.92811,0.866095 0.1237,0.536088 0.1237,1.216472 0,2.041221 -0.12372,0.824746 -0.34029,1.732103 -0.64958,2.721798 -0.30928,0.969079 -0.64946,1.907077 -1.0206,2.814296 -0.37114,0.886608 -0.73211,1.680218 -1.08263,2.38125 -0.35051,0.701035 -0.6289,1.185619 -0.83509,1.453658 -0.28866,0.35052 -0.35046,0.680326 -0.18552,0.989605 0.18557,0.28866 0.44318,0.526018 0.77308,0.711584 0.35052,0.185586 0.71149,0.288424 1.08262,0.309025 0.37114,0.02062 0.61888,-0.06145 0.7426,-0.247012 0.41237,-0.701035 0.83463,-1.54658 1.26762,-2.53628 0.43299,-1.010314 0.82513,-2.072445 1.17564,-3.185854 0.35052,-1.113406 0.63877,-2.236824 0.86558,-3.370852 0.22681,-1.134028 0.34054,-2.17538 0.34054,-3.12384 0,-0.969082 -0.14438,-1.793854 -0.43304,-2.474267 -0.26804,-0.701035 -0.73185,-1.154454 -1.39165,-1.360641 -0.52577,-0.175249 -1.05191,-0.265634 -1.57768,-0.270785 z m -31.198095,2.879929 c -0.201356,0.0081 -0.366194,0.07629 -0.495062,0.205155 -0.680416,0.742265 -1.360802,1.598205 -2.041218,2.567284 -0.103095,0.0206 -0.196062,0.03049 -0.278538,0.03049 h -0.216521 c -0.288663,0.04121 -0.597694,0.08276 -0.927592,0.124024 -0.329901,0.04127 -0.680482,0.08231 -1.051616,0.123505 -0.762892,0.123713 -1.464053,0.309128 -2.103231,0.556556 -0.103095,0.06184 -0.196062,0.124169 -0.278538,0.186034 -0.08247,0.06186 -0.144277,0.14392 -0.185517,0.247015 -0.123714,0.185565 -0.143971,0.39176 -0.0615,0.618566 0.02062,0.04123 0.04088,0.10304 0.0615,0.185518 0.02061,0.08247 0.05178,0.175443 0.09302,0.278538 0.04124,0.103092 0.09266,0.206446 0.154514,0.309541 0.06185,0.08247 0.113271,0.174924 0.154512,0.278019 0.103095,0.164946 0.227224,0.29895 0.371554,0.402042 0.103092,0.08248 0.216318,0.02067 0.340032,-0.185518 0.04124,-0.04123 0.11343,-0.09265 0.216522,-0.154514 0.103095,-0.08251 0.237096,-0.144317 0.402045,-0.185518 0.164949,-0.06189 0.329594,-0.113313 0.494543,-0.154511 0.164949,-0.04127 0.340498,-0.08282 0.526066,-0.124023 0.185568,-0.04127 0.350213,-0.0719 0.494543,-0.0925 0.164949,-0.0206 0.299466,-0.03101 0.402558,-0.03101 -0.04124,0.103092 -0.09318,0.205931 -0.155027,0.309026 -0.06185,0.08248 -0.113273,0.175442 -0.154514,0.278534 -0.659797,1.278353 -1.278377,2.577328 -1.8557,3.896921 -0.556705,1.319599 -1.062059,2.669985 -1.515671,4.051432 -0.190024,0.578716 -0.355174,1.130758 -0.49816,1.658814 -0.305205,0.03179 -0.61604,0.02554 -0.932244,-0.01964 -0.412371,-0.06186 -0.711017,-0.154305 -0.896585,-0.278019 0.164949,-0.742267 0.29895,-1.464201 0.402042,-2.165241 0.123714,-0.701035 0.134099,-1.432846 0.03101,-2.195732 -0.103093,-0.824746 -0.423029,-1.484355 -0.959115,-1.979208 -0.536085,-0.494847 -1.13389,-0.835043 -1.79369,-1.020609 -0.639177,-0.185568 -1.257757,-0.227118 -1.8557,-0.124023 -0.577323,0.08247 -0.958548,0.288665 -1.144116,0.618566 -0.226807,0.412372 -0.330161,0.84554 -0.309542,1.299144 0.02062,0.432993 0.07204,0.865637 0.154514,1.298631 -0.103095,0.103092 -0.21632,0.196061 -0.340032,0.278535 -0.123711,0.08247 -0.236937,0.175442 -0.340032,0.278537 -0.28866,0.268047 -0.587822,0.670041 -0.897101,1.206127 -0.329898,0.515466 -0.608285,1.092504 -0.835091,1.731677 -0.226806,0.618561 -0.391451,1.257913 -0.494543,1.91772 -0.103098,0.6598 -0.07245,1.26799 0.0925,1.82469 0.103092,0.41237 0.350834,0.79412 0.74259,1.14464 0.391755,0.35051 0.834787,0.63877 1.329634,0.86557 0.515467,0.22681 1.020821,0.38159 1.515668,0.46406 0.515467,0.0619 0.938242,5e-5 1.26814,-0.18552 0.391756,-0.20619 0.741821,-0.48458 1.0511,-0.83509 0.329898,-0.37114 0.608285,-0.74198 0.835091,-1.11311 0.247423,-0.39175 0.453618,-0.76311 0.618567,-1.11363 0.164949,-0.37113 0.29895,-0.65991 0.402042,-0.8661 0.556705,0.18559 1.041284,0.28895 1.453658,0.30955 0.18583,0.009 0.37832,0.01 0.57671,0.002 -0.0508,0.24225 -0.09694,0.47949 -0.135909,0.709 -0.206187,1.07218 -0.267994,2.01018 -0.185518,2.8143 0.14433,1.07218 0.505296,1.87669 1.08262,2.41277 0.577323,0.57732 1.134096,0.89674 1.670182,0.9586 0.597942,0.0825 1.051361,-0.0105 1.360641,-0.27853 -0.804127,-0.0825 -1.278321,-0.69067 -1.422652,-1.8247 -0.14433,-1.07217 -0.03111,-2.48436 0.34003,-4.23695 0.412374,-1.752588 0.979535,-3.567297 1.701189,-5.443597 0.721653,-1.814441 1.58746,-3.587605 2.597774,-5.319572 0.164949,-0.247428 0.33011,-0.494655 0.495059,-0.742075 l 0.494543,-0.742071 c 0.721654,-0.04124 1.783784,0.09276 3.185854,0.402042 0.92784,0.24742 1.54642,0.577228 1.8557,0.989603 0.185568,-0.04123 0.278537,-0.216787 0.278537,-0.526066 -0.02061,-0.144333 -0.05178,-0.29859 -0.09302,-0.463537 -0.04123,-0.164954 -0.08227,-0.330115 -0.123505,-0.495062 -0.14433,-0.329898 -0.278331,-0.587512 -0.402043,-0.773078 -0.206187,-0.268041 -0.567155,-0.495006 -1.082622,-0.68058 -0.474228,-0.144325 -1.14423,-0.299101 -2.010214,-0.464052 0.08248,-0.103095 0.185314,-0.226711 0.309026,-0.371039 0.123711,-0.164952 0.268099,-0.350366 0.433048,-0.556553 0.164947,-0.103095 0.216366,-0.298903 0.154512,-0.587563 -0.06185,-0.24742 -0.26805,-0.536197 -0.618567,-0.866095 -0.371134,-0.329888 -0.721714,-0.525696 -1.051615,-0.587563 -0.146908,-0.03866 -0.280713,-0.05548 -0.401524,-0.05064 z m 52.455199,2.151806 c -0.32088,-0.0039 -0.56628,0.07898 -0.73639,0.249081 -0.18557,0.268047 -0.40215,0.721976 -0.64957,1.361157 -0.14433,0.329893 -0.26795,0.638924 -0.37104,0.927592 -0.10309,0.268039 -0.20593,0.546431 -0.30902,0.835091 0,0.226806 0.14438,0.443386 0.43304,0.649571 0.16495,0.103095 0.3296,0.196064 0.49455,0.278537 0.18557,0.06185 0.37099,0.12365 0.55655,0.185518 0.18557,0.0206 0.35073,0.0206 0.49506,0 0.14434,-0.04124 0.26795,-0.123822 0.37104,-0.247531 0.24742,-0.453612 0.55697,-0.948576 0.92811,-1.484662 0.16495,-0.28866 0.30933,-0.535887 0.43305,-0.742074 0.14432,-0.206187 0.26794,-0.392126 0.37103,-0.557072 0.1031,-0.30928 -0.0309,-0.577279 -0.40204,-0.804085 -0.16495,-0.164954 -0.36075,-0.288565 -0.58756,-0.371038 -0.22681,-0.103079 -0.45377,-0.185664 -0.68058,-0.247528 -0.12371,-0.02062 -0.23927,-0.03127 -0.34623,-0.03256 z m 15.51585,2.100646 c -0.0409,3.2e-4 -0.0817,0.0016 -0.12299,0.0041 -0.3299,0 -0.55687,0.09296 -0.68058,0.278535 -0.0618,0.123706 -0.14444,0.298744 -0.24753,0.52555 -0.10309,0.226806 -0.20593,0.484936 -0.30903,0.773596 -0.10309,0.268047 -0.20644,0.566693 -0.30954,0.896586 -0.0824,0.309279 -0.14425,0.608436 -0.18552,0.897102 -0.0206,0.164949 0.0516,0.319722 0.21653,0.464055 0.18557,0.144327 0.39176,0.257558 0.61857,0.340032 0.24742,0.06187 0.48426,0.08261 0.71106,0.06201 0.24743,-0.02062 0.43336,-0.113588 0.55707,-0.278535 0.1031,-0.185568 0.22671,-0.402145 0.37104,-0.649573 0.14434,-0.247428 0.28872,-0.494654 0.43305,-0.742074 0.14433,-0.268047 0.27833,-0.515789 0.40204,-0.74259 0.14432,-0.247425 0.24716,-0.432843 0.30903,-0.556554 0.12371,-0.206187 0.0827,-0.412382 -0.12351,-0.618567 -0.20619,-0.206187 -0.47419,-0.371348 -0.80408,-0.495062 -0.27062,-0.10823 -0.5492,-0.160887 -0.83561,-0.158646 z m 31.69264,0.40876 c -0.0686,9.65e-4 -0.13036,0.02077 -0.18449,0.05943 -0.24742,0.226809 -0.57723,0.556612 -0.9896,0.989605 -0.39176,0.412372 -0.85556,1.051724 -1.39165,1.917711 -0.14433,-0.103093 -0.35052,-0.226703 -0.61857,-0.371036 -0.24742,-0.144333 -0.52581,-0.26846 -0.83509,-0.371555 -0.30928,-0.103092 -0.61883,-0.154511 -0.9281,-0.154511 -0.30928,-0.02061 -0.57728,0.04119 -0.80409,0.185518 -0.45361,0.309279 -0.866,0.680635 -1.23714,1.113628 -0.35052,0.412372 -0.63877,0.865794 -0.86557,1.360639 -0.22681,0.494847 -0.37119,1.020977 -0.43305,1.577681 -0.0825,0.536088 -0.0622,1.072086 0.0615,1.608172 0.14433,0.59794 0.40246,1.144331 0.7736,1.639176 0.39175,0.474228 0.77298,0.979066 1.14411,1.515152 -0.78351,0.597943 -1.54647,1.237293 -2.28874,1.917713 -0.76289,0.68041 -1.38147,1.41222 -1.8557,2.19573 -0.30927,0.51547 -0.45365,0.9694 -0.43305,1.36116 0,0.39175 0.11374,0.73195 0.34054,1.02061 0.20619,0.26804 0.50484,0.47424 0.89659,0.61856 0.37114,0.14436 0.78353,0.22693 1.23713,0.24753 0.433,0.0412 0.87654,0.0101 1.33016,-0.093 0.47422,-0.0825 0.897,-0.22686 1.26813,-0.43305 0.55671,-0.30928 1.08232,-0.69051 1.57717,-1.14412 0.49485,-0.45361 0.88645,-0.93819 1.17512,-1.45366 0.30932,-0.53608 0.48487,-1.08246 0.52607,-1.63917 0.0412,-0.5567 -0.0928,-1.11348 -0.40204,-1.67018 -0.1031,-0.16495 -0.20645,-0.31973 -0.30955,-0.464058 -0.10309,-0.144327 -0.20593,-0.299101 -0.30902,-0.464055 0.16495,-0.185566 0.51553,-0.473826 1.05161,-0.865579 0.55671,-0.412374 1.15452,-0.824759 1.79369,-1.237134 0.63918,-0.432993 1.25776,-0.814734 1.8557,-1.144632 0.59795,-0.350507 1.05136,-0.556702 1.36064,-0.618567 0.1237,-0.0206 0.21667,-0.0206 0.27854,0 0.0825,0.02067 0.14425,0.04141 0.18552,0.06201 h 0.093 c 0.0412,-0.02062 0.10304,-0.07204 0.18551,-0.154512 -0.16495,-0.144333 -0.43295,-0.309493 -0.80408,-0.495062 -0.37114,-0.185599 -0.70145,-0.257788 -0.99012,-0.216524 -0.39176,0.06186 -0.85556,0.22702 -1.39165,0.495062 -0.51546,0.268047 -1.04108,0.587465 -1.57716,0.958599 -0.53609,0.350517 -1.07209,0.711485 -1.60817,1.082619 -0.51547,0.371134 -0.96941,0.680167 -1.36116,0.927592 -0.39173,-0.453612 -0.60831,-1.010388 -0.64957,-1.670182 -0.0412,-0.680419 0.0206,-1.329643 0.18552,-1.948201 0.16494,-0.618559 0.41268,-1.144178 0.74259,-1.577166 0.35052,-0.453593 0.72135,-0.670171 1.11311,-0.649573 -0.0412,0.103095 -0.10305,0.247483 -0.18552,0.433049 -0.0825,0.185568 -0.15466,0.381376 -0.21653,0.587563 -0.0618,0.206184 -0.11324,0.422764 -0.15451,0.64957 -0.0412,0.206187 -0.0412,0.39161 0,0.556557 0.0619,0.226806 0.16522,0.443386 0.30954,0.649573 0.14434,0.185565 0.29859,0.340341 0.46354,0.464053 0.18557,0.1237 0.36112,0.216154 0.52607,0.278021 0.18556,0.06186 0.32995,0.07227 0.43304,0.031 -0.14431,-0.329898 -0.11368,-0.752673 0.0925,-1.26814 0.2268,-0.536078 0.53634,-1.082469 0.9281,-1.639176 0.39176,-0.556707 0.81454,-1.082318 1.26814,-1.577165 0.45362,-0.494845 0.84523,-0.855813 1.17513,-1.08262 0.1443,-0.103094 0.15471,-0.288514 0.031,-0.556556 -0.10309,-0.268047 -0.26825,-0.525658 -0.49506,-0.773078 -0.20619,-0.268047 -0.43315,-0.474242 -0.68058,-0.618567 -0.15463,-0.1031 -0.2887,-0.154053 -0.40307,-0.152447 z M 65.555827,91.32925 c -0.230029,-0.0019 -0.456869,0.01612 -0.681096,0.05478 -0.577323,0.08247 -0.959064,0.288665 -1.144632,0.618566 -0.226809,0.412372 -0.329647,0.84554 -0.309026,1.299144 0.02062,0.432993 0.07204,0.865637 0.154512,1.298631 -0.103093,0.103092 -0.216318,0.196061 -0.34003,0.278535 -0.123713,0.08247 -0.237455,0.175442 -0.340547,0.278537 -0.288663,0.268047 -0.587307,0.670041 -0.896589,1.206127 -0.329898,0.515466 -0.608285,1.092504 -0.835091,1.731677 -0.226803,0.618561 -0.391967,1.257913 -0.495059,1.917713 -0.103095,0.6598 -0.07193,1.26799 0.09302,1.82469 0.103095,0.41237 0.350319,0.79412 0.742074,1.14464 0.391755,0.35051 0.834787,0.63877 1.329635,0.86557 0.515466,0.22681 1.020823,0.38159 1.51567,0.46406 0.515467,0.0619 0.938239,5e-5 1.26814,-0.18552 0.391753,-0.20619 0.742337,-0.48458 1.051616,-0.83509 0.329898,-0.37114 0.608285,-0.74198 0.835088,-1.11311 0.247426,-0.39175 0.453621,-0.76311 0.61857,-1.11363 0.164949,-0.37113 0.298947,-0.65991 0.402042,-0.8661 0.556702,0.18559 1.041284,0.28895 1.453658,0.30955 0.412372,0.0206 0.855406,-1.5e-4 1.329634,-0.062 0.103095,0 0.185677,-0.0722 0.247529,-0.21653 0.08248,-0.14433 0.123507,-0.299105 0.123507,-0.464051 0,-0.185574 -0.04103,-0.340347 -0.123507,-0.464053 -0.06185,-0.144314 -0.17508,-0.206118 -0.34003,-0.18552 v 5.18e-4 c -0.412374,0.08247 -0.835146,0.09236 -1.26814,0.03049 -0.412377,-0.06187 -0.711539,-0.15432 -0.897104,-0.278034 0.164949,-0.742267 0.298947,-1.464201 0.402042,-2.165241 0.123711,-0.701035 0.134099,-1.432846 0.031,-2.195732 -0.103092,-0.824746 -0.42251,-1.484355 -0.958596,-1.979208 -0.536081,-0.494847 -1.134405,-0.835043 -1.794202,-1.020609 -0.399486,-0.11598 -0.790709,-0.17558 -1.174088,-0.1788 z m 83.536503,0 c -0.23002,-0.0019 -0.45738,0.01612 -0.68161,0.05478 -0.57732,0.08247 -0.95855,0.288665 -1.14412,0.618566 -0.22678,0.412372 -0.33014,0.84554 -0.30954,1.299144 0.0206,0.432993 0.0726,0.865637 0.15503,1.298631 -0.10309,0.103092 -0.21683,0.196061 -0.34055,0.278535 -0.12371,0.08247 -0.23693,0.175442 -0.34003,0.278537 -0.0308,0.0286 -0.062,0.05929 -0.093,0.09095 -0.13195,-0.0108 -0.22735,0.05077 -0.28578,0.187068 -0.32989,0.618559 -0.70125,1.237139 -1.11362,1.8557 -0.41238,0.618559 -0.84503,1.196115 -1.29863,1.732193 -0.433,0.536088 -0.87654,1.010276 -1.33015,1.422656 -0.45361,0.41237 -0.87638,0.73179 -1.26814,0.95859 0,-0.43299 0.093,-0.9586 0.27853,-1.577159 0.18557,-0.618561 0.40216,-1.257919 0.64958,-1.917713 0.24742,-0.680421 0.50503,-1.319255 0.77308,-1.917195 0.26804,-0.618561 0.48462,-1.134303 0.64957,-1.546677 0.10309,-0.247425 0.0615,-0.494652 -0.12402,-0.742072 -0.16495,-0.268047 -0.40179,-0.495014 -0.71107,-0.68058 -0.30928,-0.185552 -0.64947,-0.309171 -1.02061,-0.371035 -0.35052,-0.06186 -0.64968,-0.02083 -0.89711,0.123504 -0.37113,0.226809 -0.75235,0.505198 -1.14411,0.835092 -0.39175,0.329901 -0.78389,0.701254 -1.17564,1.113628 -0.37113,0.412372 -0.75236,0.855401 -1.14412,1.329635 -0.37113,0.474226 -0.72171,0.948425 -1.05161,1.422651 0.0206,-0.103092 0.1032,-0.2989 0.24753,-0.58756 0.16494,-0.288661 0.35037,-0.618472 0.55655,-0.989605 0.22681,-0.391758 0.45378,-0.804146 0.68058,-1.237134 0.24742,-0.453612 0.47439,-0.896641 0.68058,-1.329634 0.0619,-0.164947 -0.0103,-0.36127 -0.21652,-0.588076 -0.18558,-0.226809 -0.43331,-0.412229 -0.74259,-0.556557 -0.30928,-0.144333 -0.62871,-0.216524 -0.9586,-0.216524 -0.30928,0 -0.53625,0.144388 -0.68058,0.433049 -0.48114,0.841991 -0.92285,1.752668 -1.32602,2.731098 -0.0367,0.0312 -0.0718,0.06858 -0.10439,0.114207 -0.5567,0.989692 -1.0927,1.876271 -1.60816,2.659785 -0.51547,0.783508 -0.97928,1.422865 -1.39165,1.917713 -0.39175,0.494839 -0.72157,0.835029 -0.9896,1.020609 -0.26805,0.16494 -0.4436,0.13379 -0.52607,-0.093 -0.12371,-0.30928 -0.01,-0.979278 0.34055,-2.010211 0.35052,-1.051552 1.01013,-2.504779 1.97921,-4.360458 0.10309,-0.226801 0.0517,-0.443386 -0.15452,-0.649573 -0.20619,-0.206187 -0.46431,-0.371345 -0.7736,-0.495059 -0.30927,-0.123714 -0.62869,-0.185518 -0.95859,-0.185518 -0.30928,0 -0.51548,0.08258 -0.61857,0.247528 -0.32989,0.536088 -0.64932,1.18531 -0.9586,1.948204 -0.30928,0.742273 -0.58766,1.505241 -0.83509,2.288749 -0.26804,0.762892 -0.47423,1.494697 -0.61856,2.195729 -0.16497,0.680419 -0.25794,1.226799 -0.27854,1.639179 -0.0206,0.3299 0.0724,0.62906 0.27854,0.8971 0.20618,0.24743 0.46379,0.45362 0.77307,0.61857 0.30929,0.1443 0.63909,0.23727 0.98961,0.27853 0.35051,0.0412 0.66006,0.0101 0.92811,-0.093 0.43298,-0.18556 0.91757,-0.58756 1.45365,-1.20612 0.41338,-0.45931 0.81498,-0.9587 1.20562,-1.49759 -0.0498,0.16055 -0.0994,0.32087 -0.14625,0.47698 -0.24743,0.80412 -0.43336,1.45335 -0.55707,1.9482 -0.0618,0.18556 0.0311,0.3715 0.27854,0.55707 0.2268,0.18557 0.4948,0.32996 0.80408,0.43305 0.30928,0.10309 0.61831,0.15451 0.92759,0.15451 0.30928,-0.0206 0.51548,-0.12397 0.61857,-0.30954 0.22681,-0.47423 0.54674,-1.07204 0.95912,-1.79369 0.43299,-0.72165 0.8968,-1.45346 1.39164,-2.195727 0.51547,-0.742267 1.03069,-1.443432 1.54616,-2.103231 0.51547,-0.659802 0.97979,-1.165156 1.39216,-1.515671 -0.0619,0.144328 -0.17559,0.464262 -0.34055,0.959115 -0.14432,0.474226 -0.29858,1.010229 -0.46353,1.608172 -0.14433,0.597939 -0.25807,1.195742 -0.34055,1.793682 -0.0825,0.59794 -0.0825,1.07214 0,1.42266 0.0412,0.20618 0.19601,0.41238 0.46406,0.61856 0.26804,0.20619 0.57707,0.37135 0.92759,0.49506 0.35052,0.12369 0.71148,0.20627 1.08262,0.24753 0.37114,0.0206 0.70094,-0.0412 0.9896,-0.18551 0.433,-0.22681 0.89732,-0.60855 1.39216,-1.14464 0.24828,-0.2582 0.49149,-0.53113 0.73019,-0.81804 0.0184,0.28398 0.0657,0.55677 0.14315,0.81804 0.10309,0.41237 0.35083,0.79412 0.74259,1.14464 0.39175,0.35051 0.83478,0.63877 1.32963,0.86557 0.51547,0.22681 1.02082,0.38159 1.51567,0.46406 0.51547,0.0619 0.93825,5e-5 1.26814,-0.18552 0.39176,-0.20619 0.74234,-0.48458 1.05162,-0.83509 0.32989,-0.37114 0.60776,-0.74198 0.83457,-1.11311 0.24743,-0.39175 0.45362,-0.76311 0.61857,-1.11363 0.16495,-0.37113 0.29895,-0.65991 0.40204,-0.8661 0.5567,0.18559 1.04128,0.28895 1.45366,0.30955 0.41237,0.0206 0.85592,-1.5e-4 1.33015,-0.062 0.10308,0 0.18566,-0.0722 0.24753,-0.21653 0.0825,-0.14433 0.12351,-0.299106 0.12351,-0.464052 0,-0.185574 -0.041,-0.340347 -0.12351,-0.464053 -0.0619,-0.144314 -0.17559,-0.206118 -0.34055,-0.18552 v 5.18e-4 c -0.41237,0.08247 -0.83463,0.09236 -1.26762,0.03049 -0.41237,-0.06186 -0.71154,-0.154305 -0.8971,-0.278019 0.16495,-0.742267 0.29895,-1.464201 0.40204,-2.165241 0.12369,-0.701035 0.1341,-1.432846 0.031,-2.195732 -0.10309,-0.824746 -0.42303,-1.484355 -0.95911,-1.979208 -0.53609,-0.494847 -1.13389,-0.835043 -1.79369,-1.020609 -0.39949,-0.11598 -0.79071,-0.17558 -1.17409,-0.1788 z m -97.501542,1.848464 c 0.08248,0.144335 0.15467,0.381685 0.216524,0.711586 0.08247,0.309279 0.133893,0.670248 0.154512,1.082619 0.04124,0.391756 0.04124,0.793756 0,1.20613 -0.04124,0.391753 -0.123301,0.731949 -0.247013,1.020609 -0.350514,-0.824746 -0.546322,-1.598102 -0.587562,-2.319755 -0.02062,-0.721654 0.133641,-1.288815 0.463539,-1.701189 z m 14.892112,0 c 0.08248,0.144335 0.154673,0.381685 0.216525,0.711586 0.08247,0.309279 0.133892,0.670248 0.154514,1.082619 0.04124,0.391756 0.04124,0.793756 0,1.20613 -0.04124,0.391753 -0.12382,0.731949 -0.247531,1.020609 -0.350515,-0.824746 -0.546322,-1.598102 -0.58756,-2.319755 -0.02062,-0.721654 0.134154,-1.288815 0.464052,-1.701189 z m 83.53599,0 c 0.0825,0.144335 0.15466,0.381685 0.21652,0.711586 0.0825,0.309279 0.13443,0.670248 0.15503,1.082619 0.0413,0.391756 0.0413,0.793756 0,1.20613 -0.0412,0.391753 -0.12381,0.731949 -0.24752,1.020609 -0.35056,-0.824746 -0.54637,-1.598102 -0.58757,-2.319755 -0.0206,-0.721654 0.13364,-1.288815 0.46354,-1.701189 z M 49.580574,97.074635 c 0.391755,0.762894 0.948528,1.391859 1.670182,1.886706 -0.28866,0.721654 -0.628854,1.402039 -1.020609,2.041219 -0.371136,0.63917 -0.958556,1.19595 -1.762683,1.67018 -0.123706,-0.37114 -0.154871,-0.84533 -0.09302,-1.42265 0.06185,-0.59794 0.164692,-1.18536 0.309025,-1.762683 0.164949,-0.59794 0.33011,-1.124074 0.49506,-1.577681 0.164949,-0.453612 0.29895,-0.731999 0.402042,-0.835091 z m 14.891596,0 c 0.391756,0.762894 0.948532,1.391859 1.670183,1.886706 -0.288661,0.721654 -0.628854,1.402039 -1.020609,2.041219 -0.371137,0.63917 -0.958554,1.19595 -1.762684,1.67018 -0.123706,-0.37114 -0.154871,-0.84533 -0.09302,-1.42265 0.06186,-0.59794 0.165212,-1.18536 0.309542,-1.762683 0.164949,-0.59794 0.329594,-1.124074 0.494543,-1.577681 0.164949,-0.453612 0.29895,-0.731999 0.402042,-0.835091 z m 83.53651,0 c 0.39175,0.762894 0.94853,1.391859 1.67018,1.886706 -0.28866,0.721654 -0.62886,1.402039 -1.02061,2.041219 -0.37114,0.63917 -0.95856,1.19595 -1.76268,1.67018 -0.12374,-0.37114 -0.15489,-0.84533 -0.093,-1.42265 0.0619,-0.59794 0.16521,-1.18536 0.30954,-1.762683 0.16495,-0.59794 0.3296,-1.124074 0.49455,-1.577681 0.16495,-0.453612 0.29895,-0.731999 0.40204,-0.835091 z m 10.27586,4.020945 c 0.12371,0.26804 0.0827,0.61862 -0.12351,1.05161 -0.18557,0.433 -0.45357,0.85525 -0.80409,1.26763 -0.3299,0.41237 -0.70125,0.77334 -1.11362,1.08262 -0.39176,0.28868 -0.73195,0.44345 -1.02061,0.46405 0.26804,-0.76289 0.68042,-1.44328 1.23713,-2.04122 0.57732,-0.61856 1.18552,-1.22675 1.8247,-1.82469 z" />
  </g>
</svg>
