<?xml version="1.0" encoding="UTF-8" standalone="no"?>
<!-- Created with Inkscape (http://www.inkscape.org/) -->

<svg
   width="13.758333mm"
   height="13.758333mm"
   viewBox="0 0 13.758333 13.758333"
   version="1.1"
   id="svg5"
   inkscape:version="1.1 (c68e22c387, 2021-05-23)"
   sodipodi:docname="ico.svg"
   xmlns:inkscape="http://www.inkscape.org/namespaces/inkscape"
   xmlns:sodipodi="http://sodipodi.sourceforge.net/DTD/sodipodi-0.dtd"
   xmlns="http://www.w3.org/2000/svg"
   xmlns:svg="http://www.w3.org/2000/svg">
  <sodipodi:namedview
     id="namedview7"
     pagecolor="#ffffff"
     bordercolor="#999999"
     borderopacity="1"
     inkscape:pageshadow="0"
     inkscape:pageopacity="0"
     inkscape:pagecheckerboard="0"
     inkscape:document-units="mm"
     showgrid="false"
     inkscape:zoom="8.3049731"
     inkscape:cx="36.423959"
     inkscape:cy="33.654534"
     inkscape:window-width="1920"
     inkscape:window-height="1009"
     inkscape:window-x="-8"
     inkscape:window-y="-8"
     inkscape:window-maximized="1"
     inkscape:current-layer="layer1" />
  <defs
     id="defs2" />
  <g
     inkscape:label="Capa 1"
     inkscape:groupmode="layer"
     id="layer1"
     transform="translate(-60.743896,-70.177955)">
    <g
       aria-label="js"
       id="text2695"
       style="font-size:10.5833px;letter-spacing:0.0555625px;word-spacing:0px;stroke-width:0.264583;fill:#ffffff">
      <path
         style="color:#000000;-inkscape-font-specification:'Billion Dreams';fill:#ffffff;-inkscape-stroke:none"
         d="m 67.796985,74.269905 q -0.05292,0.08467 -0.179916,0.09525 -0.126999,0 -0.264582,-0.04233 -0.137583,-0.05292 -0.232833,-0.126999 -0.09525,-0.07408 -0.07408,-0.15875 0.02117,-0.127 0.0635,-0.285749 0.05292,-0.15875 0.09525,-0.306916 0.05292,-0.148166 0.09525,-0.275166 0.04233,-0.126999 0.07408,-0.190499 0.0635,-0.09525 0.22225,-0.07408 0.169333,0.01058 0.328082,0.08467 0.15875,0.0635 0.264583,0.169333 0.105833,0.105833 0.05292,0.201083 -0.07408,0.137583 -0.211666,0.423332 -0.127,0.275166 -0.232833,0.486832 z m 0.380999,1.439328 q 0.07408,-0.03175 0.137583,0.02117 0.0635,0.05292 0.08467,0.137583 0.03175,0.08467 0.02117,0.179916 -0.01058,0.08467 -0.07408,0.137583 -0.190499,0.148166 -0.518582,0.455082 -0.317499,0.296332 -0.634998,0.613831 -0.317499,0.317499 -0.571498,0.592665 -0.253999,0.264582 -0.296332,0.370415 -0.1905,0.433916 -0.412749,0.910164 -0.232832,0.486832 -0.476248,0.910164 -0.243416,0.423332 -0.497415,0.740831 -0.254,0.317499 -0.518582,0.412749 -0.127,0.05292 -0.380999,-0.02117 -0.253999,-0.0635 -0.465665,-0.222249 -0.211666,-0.15875 -0.306916,-0.402166 -0.09525,-0.232832 0.08467,-0.539748 0.222249,-0.391582 0.560914,-0.740831 0.338666,-0.349249 0.666748,-0.634998 0.317499,-0.296332 0.560915,-0.507998 0.243416,-0.211666 0.296333,-0.317499 0.137583,-0.275166 0.317499,-0.709081 0.179916,-0.444499 0.359832,-0.888998 0.179916,-0.455081 0.328082,-0.83608 0.15875,-0.380999 0.222249,-0.550332 0.0635,-0.148166 0.232833,-0.179916 0.169333,-0.03175 0.338666,0.02117 0.179916,0.04233 0.285749,0.158749 0.116416,0.105833 0.07408,0.243416 -0.0635,0.190499 -0.169333,0.433915 -0.09525,0.232833 -0.201083,0.476249 -0.105833,0.232832 -0.201082,0.455082 -0.09525,0.211666 -0.148167,0.370415 0.105833,-0.09525 0.296333,-0.264582 0.201082,-0.179916 0.402165,-0.349249 0.211666,-0.179916 0.380999,-0.317499 0.169333,-0.137583 0.222249,-0.15875 z m -4.370903,4.804818 q 0.28575,-0.243416 0.529165,-0.582081 0.243416,-0.328082 0.497416,-0.772581 -0.179917,0.179916 -0.359833,0.370416 -0.179916,0.201082 -0.317499,0.380998 -0.148166,0.179916 -0.243416,0.338666 -0.09525,0.158749 -0.105833,0.264582 z"
         id="path6527" />
      <path
         style="color:#000000;-inkscape-font-specification:'Billion Dreams';fill:#ffffff;-inkscape-stroke:none"
         d="m 71.397935,75.127152 q 0.148166,-0.02117 0.338665,0.07408 0.1905,0.09525 0.275166,0.169333 -0.04233,0.04233 -0.0635,0.05292 -0.01058,0 -0.03175,0 -0.02117,-0.01058 -0.0635,-0.02117 -0.03175,-0.01058 -0.09525,0 -0.158749,0.03175 -0.465665,0.211666 -0.306916,0.169332 -0.634998,0.391582 -0.328082,0.211666 -0.613831,0.423332 -0.275166,0.201082 -0.359833,0.296332 0.05292,0.08467 0.105833,0.15875 0.05292,0.07408 0.105833,0.158749 0.15875,0.285749 0.137583,0.571498 -0.02117,0.285749 -0.179916,0.560915 -0.148166,0.264583 -0.402165,0.497415 -0.253999,0.232833 -0.539749,0.391582 -0.190499,0.105833 -0.433915,0.148167 -0.232832,0.05292 -0.455082,0.03175 -0.232832,-0.01058 -0.423332,-0.08467 -0.201082,-0.07408 -0.306915,-0.211666 -0.116417,-0.148166 -0.116417,-0.349249 -0.01058,-0.201083 0.148167,-0.465665 0.243415,-0.402165 0.634998,-0.751414 0.380998,-0.349249 0.783164,-0.656165 -0.1905,-0.275166 -0.391582,-0.518582 -0.1905,-0.253999 -0.264583,-0.560914 -0.0635,-0.275166 -0.02117,-0.550332 0.03175,-0.285749 0.148166,-0.539748 0.116416,-0.253999 0.296332,-0.465665 0.190499,-0.22225 0.423332,-0.380999 0.116416,-0.07408 0.275166,-0.0635 0.158749,0 0.317499,0.05292 0.158749,0.05292 0.285749,0.127 0.137583,0.07408 0.211666,0.127 0.275166,-0.444499 0.476248,-0.656165 0.211666,-0.222249 0.338666,-0.338666 0.07408,-0.05292 0.201083,0.03175 0.126999,0.07408 0.232832,0.211666 0.116417,0.127 0.169333,0.264583 0.0635,0.137583 -0.01058,0.190499 -0.169333,0.116417 -0.402166,0.370416 -0.232832,0.253999 -0.433915,0.539748 -0.201083,0.285749 -0.317499,0.560915 -0.105833,0.264582 -0.03175,0.433915 -0.05292,0.02117 -0.148166,-0.01058 -0.08467,-0.03175 -0.179916,-0.09525 -0.08467,-0.0635 -0.15875,-0.158749 -0.07408,-0.105833 -0.105833,-0.22225 -0.02117,-0.08467 0,-0.190499 0.02117,-0.116416 0.05292,-0.222249 0.03175,-0.105833 0.07408,-0.201083 0.04233,-0.09525 0.0635,-0.148166 -0.201083,-0.01058 -0.380999,0.222249 -0.169333,0.222249 -0.253999,0.539748 -0.08467,0.317499 -0.0635,0.666748 0.02117,0.338666 0.222249,0.571498 0.201083,-0.126999 0.465666,-0.317499 0.275165,-0.190499 0.550331,-0.370415 0.275166,-0.190499 0.539748,-0.328082 0.275166,-0.137583 0.476249,-0.169333 z m -3.418406,3.460739 q 0.148166,-0.01058 0.349249,-0.15875 0.211666,-0.158749 0.380999,-0.370415 0.179916,-0.211666 0.275166,-0.433915 0.105833,-0.22225 0.04233,-0.359833 -0.328083,0.306916 -0.624415,0.624415 -0.285749,0.306916 -0.423332,0.698498 z"
         id="path6529" />
    </g>
  </g>
</svg>
