<?xml version="1.0" encoding="UTF-8" standalone="no"?>
<!-- Created with Inkscape (http://www.inkscape.org/) -->

<svg
   width="96.93mm"
   height="13.65343mm"
   viewBox="0 0 96.929997 13.65343"
   version="1.1"
   id="svg5"
   inkscape:version="1.1 (c68e22c387, 2021-05-23)"
   sodipodi:docname="simplename_v2.svg"
   xmlns:inkscape="http://www.inkscape.org/namespaces/inkscape"
   xmlns:sodipodi="http://sodipodi.sourceforge.net/DTD/sodipodi-0.dtd"
   xmlns="http://www.w3.org/2000/svg"
   xmlns:svg="http://www.w3.org/2000/svg">
  <sodipodi:namedview
     id="namedview7"
     pagecolor="#ffffff"
     bordercolor="#999999"
     borderopacity="1"
     inkscape:pageshadow="0"
     inkscape:pageopacity="0"
     inkscape:pagecheckerboard="0"
     inkscape:document-units="mm"
     showgrid="false"
     showguides="false"
     inkscape:zoom="1.4681256"
     inkscape:cx="241.46435"
     inkscape:cy="58.918663"
     inkscape:window-width="1920"
     inkscape:window-height="1009"
     inkscape:window-x="-8"
     inkscape:window-y="-8"
     inkscape:window-maximized="1"
     inkscape:current-layer="layer1" />
  <defs
     id="defs2" />
  <g
     inkscape:label="Capa 1"
     inkscape:groupmode="layer"
     id="layer1"
     transform="translate(-43.515117,-55.897483)">
    <path
       id="path4565"
       style="color:#000000;font-size:18.858px;-inkscape-font-specification:'Montserrat Bold';letter-spacing:0.0990045px;word-spacing:0px;fill:#ffffff;stroke-width:1.78186;-inkscape-stroke:none"
       d="m 229.98242,30.589844 c -14.1836,0 -21.02539,7.055464 -21.02539,15.537109 0,18.531326 29.00781,12.118141 29.00781,21.455078 0,3.064796 -2.7807,5.345703 -9.62304,5.345703 -5.98704,0 -12.25771,-2.138328 -16.46289,-5.203125 l -3.91993,8.695313 c 4.41901,3.421168 12.40104,5.773437 20.3125,5.773437 14.25487,0 21.16797,-7.1277 21.16797,-15.466797 0,-18.317502 -29.00781,-11.975533 -29.00781,-21.169921 0,-3.136071 2.63617,-5.701172 9.47852,-5.701172 4.41902,0 9.19529,1.282771 13.82812,3.919922 l 3.5625,-8.765625 c -4.63283,-2.922248 -11.04623,-4.419922 -17.31836,-4.419922 z M 12.292969,31.445312 v 9.265626 h 17.533203 v 23.734374 c 0,5.488124 -2.423809,8.267579 -7.056641,8.267579 -3.563716,0 -6.5572,-1.853291 -9.265625,-5.488282 l -6.4140622,7.697266 c 3.6349912,4.704106 9.5502132,7.271484 16.2500002,7.271484 11.760264,0 17.960937,-6.058212 17.960937,-18.388671 V 31.445312 Z m 293.060551,3.064454 v 9.33789 h -5.91407 v 8.552735 h 5.91407 v 15.751953 c 0,9.123114 5.27431,13.755859 14.32617,13.755859 3.42115,0 6.77194,-0.784518 9.05273,-2.423828 l -2.99414,-7.839844 c -1.21168,0.926567 -2.85094,1.425781 -4.49023,1.425781 -2.99354,0 -4.77539,-1.781927 -4.77539,-5.060546 V 52.400391 h 9.55078 v -8.552735 h -9.55078 v -9.33789 z M 69.900391,42.421875 c -11.688991,0 -20.455079,8.26702 -20.455079,19.742187 0,11.403893 8.623834,19.744141 21.88086,19.744141 6.91361,0 12.258549,-2.138535 15.822266,-6.201172 l -5.916016,-6.416015 c -2.63715,2.494601 -5.558457,3.707031 -9.621094,3.707031 -5.844495,0 -9.907447,-2.921886 -10.976562,-7.697266 h 29.007812 c 0.07128,-0.926566 0.214844,-2.138848 0.214844,-2.99414 0,-12.33046 -8.695687,-19.884766 -19.957031,-19.884766 z m 42.140629,0 c -6.1296,0 -12.329975,1.639291 -16.535161,4.632813 l 3.990235,7.769531 c 2.779696,-2.209505 6.986196,-3.564453 11.048826,-3.564453 5.98705,0 8.83789,2.779307 8.83789,7.554687 h -8.83789 c -11.688988,0 -16.464842,4.703548 -16.464842,11.474609 0,6.628513 5.345606,11.619141 14.326172,11.619141 5.63067,0 9.6225,-1.853261 11.68945,-5.345703 v 4.775391 h 10.40625 v -21.88086 c 0,-11.617716 -6.77194,-17.035156 -18.46093,-17.035156 z m 52.1914,0 c -5.20302,0 -9.69398,1.781928 -12.6875,5.060547 v -4.490234 h -10.62109 v 38.345703 h 11.11914 V 62.378906 c 0,-7.056158 3.84974,-10.335937 9.19531,-10.335937 4.91793,0 7.76953,2.851867 7.76953,9.052734 V 81.337891 H 180.125 V 59.384766 c 0,-11.688991 -6.84074,-16.962891 -15.89258,-16.962891 z m 110.95508,0 c -12.18788,0 -21.09766,8.195746 -21.09766,19.742187 0,11.546442 8.90978,19.744141 21.09766,19.744141 12.18792,0 21.02539,-8.197699 21.02539,-19.744141 0,-11.546441 -8.83747,-19.742187 -21.02539,-19.742187 z m 77.22656,0 c -12.18788,0 -21.09765,8.195746 -21.09765,19.742187 0,11.546442 8.90977,19.744141 21.09765,19.744141 12.18792,0 21.02539,-8.197699 21.02539,-19.744141 0,-11.546441 -8.83747,-19.742187 -21.02539,-19.742187 z M 69.970703,50.832031 c 4.989203,0 8.624186,3.135768 9.408203,7.982422 H 60.492188 c 0.784017,-4.917929 4.418038,-7.982422 9.478515,-7.982422 z M 275.1875,51.544922 c 5.55942,0 9.76563,3.990628 9.76562,10.61914 0,6.628513 -4.2062,10.621094 -9.76562,10.621094 -5.55938,0 -9.83594,-3.992581 -9.83594,-10.621094 0,-6.628512 4.27656,-10.61914 9.83594,-10.61914 z m 77.22656,0 c 5.55942,0 9.76367,3.990628 9.76367,10.61914 0,6.628513 -4.20425,10.621094 -9.76367,10.621094 -5.55938,0 -9.83594,-3.992581 -9.83594,-10.621094 0,-6.628512 4.27656,-10.61914 9.83594,-10.61914 z m -240.6582,13.755859 h 7.62695 v 3.919922 c -1.28294,3.492442 -4.491,5.203125 -8.19726,5.203125 -3.92009,0 -6.27149,-1.853113 -6.27149,-4.632812 0,-2.565876 1.63877,-4.490235 6.8418,-4.490235 z"
       transform="matrix(0.26458333,0,0,0.26458333,41.639263,47.80392)" />
  </g>
</svg>
