<?xml version="1.0" encoding="UTF-8" standalone="no"?>
<!-- Created with Inkscape (http://www.inkscape.org/) -->

<svg
   width="100.68163mm"
   height="29.840389mm"
   viewBox="0 0 100.68163 29.840389"
   version="1.1"
   id="svg5"
   inkscape:version="1.1 (c68e22c387, 2021-05-23)"
   sodipodi:docname="simplename.svg"
   xmlns:inkscape="http://www.inkscape.org/namespaces/inkscape"
   xmlns:sodipodi="http://sodipodi.sourceforge.net/DTD/sodipodi-0.dtd"
   xmlns="http://www.w3.org/2000/svg"
   xmlns:svg="http://www.w3.org/2000/svg">
  <sodipodi:namedview
     id="namedview7"
     pagecolor="#ffffff"
     bordercolor="#999999"
     borderopacity="1"
     inkscape:pageshadow="0"
     inkscape:pageopacity="0"
     inkscape:pagecheckerboard="0"
     inkscape:document-units="mm"
     showgrid="false"
     showguides="false"
     inkscape:zoom="1.4681256"
     inkscape:cx="248.27575"
     inkscape:cy="89.56999"
     inkscape:window-width="1920"
     inkscape:window-height="1009"
     inkscape:window-x="-8"
     inkscape:window-y="-8"
     inkscape:window-maximized="1"
     inkscape:current-layer="layer1" />
  <defs
     id="defs2" />
  <g
     inkscape:label="Capa 1"
     inkscape:groupmode="layer"
     id="layer1"
     transform="translate(-41.639263,-47.80392)">
    <path
       id="path842"
       style="color:#000000;-inkscape-font-specification:'Billion Dreams';fill:#ffffff;stroke-width:2.92233;-inkscape-stroke:none"
       d="M 290.17188 0.001953125 C 289.60687 -0.017700418 289.14953 0.090417175 288.79883 0.32421875 C 288.33126 0.63595418 287.66778 1.3367322 286.81055 2.4277344 C 286.03125 3.5187366 285.21263 4.76525 284.35547 6.1679688 C 283.49823 7.5706875 282.6031 9.0134918 281.66797 10.494141 C 280.81073 11.974786 280.10995 13.299818 279.56445 14.46875 C 277.30452 10.57231 274.38161 8.2343676 270.79688 7.4550781 C 267.29008 6.6757925 263.50937 6.9466957 259.45703 8.2714844 C 255.48267 9.596273 251.50952 11.779135 247.53516 14.818359 C 243.56079 17.779653 240.09219 21.091253 237.13086 24.753906 C 234.16956 28.416559 231.91013 32.158049 230.35156 35.976562 C 228.87093 39.717146 228.55878 43.067999 229.41602 46.029297 C 230.03945 48.211301 231.32517 50.042789 233.27344 51.523438 C 235.22167 53.004083 237.44377 54.329115 239.9375 55.498047 C 242.50913 56.589049 245.15727 57.641221 247.88477 58.654297 C 250.69023 59.589443 253.22444 60.678926 255.48438 61.925781 C 257.82228 63.094717 259.73027 64.458999 261.21094 66.017578 C 262.7695 67.576153 263.54883 69.486159 263.54883 71.746094 C 263.54883 73.850172 262.65366 76.1096 260.86133 78.525391 C 259.06892 80.941185 256.77027 83.279128 253.96484 85.539062 C 251.15941 87.721071 248.07948 89.668377 244.72852 91.382812 C 241.37759 93.097248 238.14451 94.345714 235.02734 95.125 C 231.83228 95.826363 229.3765 95.86366 227.66211 95.240234 C 226.02557 94.538875 224.89687 93.449399 224.27344 91.96875 C 223.7279 90.410175 223.61003 88.617945 223.92188 86.591797 C 224.23369 84.487719 224.81855 82.383375 225.67578 80.279297 C 226.61091 78.175219 227.74161 76.186698 229.06641 74.316406 C 230.39121 72.446115 231.7143 70.966002 233.03906 69.875 L 233.04102 69.875 C 233.4308 69.641198 233.54661 69.329096 233.39062 68.939453 C 233.31277 68.549799 233.0792 68.239634 232.68945 68.005859 C 232.29982 67.694124 231.83261 67.537109 231.28711 67.537109 C 230.74161 67.459176 230.2744 67.576936 229.88477 67.888672 C 227.70273 69.99275 225.51989 72.564292 223.33789 75.603516 C 221.23383 78.64274 219.40231 81.836563 217.84375 85.1875 C 216.90862 87.213652 216.16858 89.241426 215.62305 91.267578 C 215.07758 93.293726 214.80469 95.241033 214.80469 97.111328 C 214.80469 98.90369 215.15619 100.54084 215.85742 102.02148 C 216.55875 103.50213 217.68753 104.74864 219.24609 105.76172 C 220.57089 106.541 222.20802 107.12599 224.15625 107.51562 C 226.10448 107.90528 228.48168 108.02112 231.28711 107.86523 C 234.5601 107.63143 237.95023 106.96989 241.45703 105.87891 C 244.96383 104.7879 248.39126 103.38436 251.74219 101.66992 C 255.09312 100.03342 258.24964 98.162672 261.21094 96.058594 C 264.17227 93.954516 266.78304 91.77361 269.04297 89.513672 C 271.3029 87.253737 273.09512 84.994313 274.41992 82.734375 C 275.82269 80.474444 276.56277 78.370097 276.64062 76.421875 C 276.87458 72.447505 276.13435 69.133956 274.41992 66.484375 C 272.70549 63.756868 270.48535 61.497443 267.75781 59.705078 C 265.10825 57.834786 262.18533 56.276152 258.99023 55.029297 C 255.79514 53.704504 252.83492 52.457995 250.10742 51.289062 C 247.45782 50.0422 245.27502 48.79569 243.56055 47.548828 C 241.92401 46.224039 241.22319 44.58689 241.45703 42.638672 C 241.69098 40.69045 242.58597 38.470283 244.14453 35.976562 C 245.78107 33.482838 247.7303 31.027127 249.99023 28.611328 C 252.2502 26.117607 254.66466 23.779661 257.23633 21.597656 C 259.88589 19.415648 262.38089 17.623422 264.71875 16.220703 C 267.05661 14.740054 269.04315 13.805658 270.67969 13.416016 C 272.39412 12.948443 273.44631 13.221295 273.83594 14.234375 C 274.53738 16.104667 274.65525 18.285572 274.1875 20.779297 C 273.79791 23.195088 273.1736 25.766629 272.31641 28.494141 C 271.45917 31.143718 270.56208 33.793782 269.62695 36.443359 C 268.76979 39.09294 268.22599 41.509398 267.99219 43.691406 C 267.75823 45.483768 268.03113 47.120917 268.81055 48.601562 C 269.66778 50.004281 270.68064 51.172276 271.84961 52.107422 C 273.01854 52.964649 274.22579 53.510362 275.47266 53.744141 C 276.71948 53.900008 277.73242 53.627129 278.51172 52.925781 C 277.65445 52.068569 277.34233 50.588453 277.57617 48.484375 C 277.88798 46.302374 278.55135 43.807391 279.56445 41.001953 C 280.65545 38.118589 282.0178 35.079842 283.6543 31.884766 C 285.29079 28.611748 287.00646 25.494497 288.79883 22.533203 C 290.66909 19.493979 292.53986 16.767357 294.41016 14.351562 C 296.28049 11.857842 297.95492 9.9478393 299.43555 8.6230469 C 300.37056 7.9216875 300.4493 6.9872917 299.66992 5.8183594 C 298.96855 4.6494271 297.91637 3.5972552 296.51367 2.6621094 C 295.18887 1.6490335 293.7461 0.90897916 292.1875 0.44140625 C 291.40827 0.16863775 290.73688 0.02143659 290.17188 0.001953125 z M 55.658203 3.4257812 C 52.246078 3.4324812 48.851854 3.9184434 45.476562 4.8828125 C 40.567051 6.2076024 35.851903 8.2334268 31.332031 10.960938 C 26.890089 13.610513 22.722613 16.806292 18.826172 20.546875 C 15.00766 24.209529 11.694109 28.027583 8.8886719 32.001953 C 6.0832344 35.976323 3.8630677 39.951411 2.2265625 43.925781 C 0.66798116 47.822222 -0.072074484 51.328164 0.005859375 54.445312 C 0.005859375 56.861106 0.55157482 58.847674 1.6425781 60.40625 C 2.7335816 61.886898 4.0959167 63.017587 5.7324219 63.796875 C 7.4468559 64.576153 9.3176007 65.043351 11.34375 65.199219 C 13.447828 65.277149 15.512917 65.122069 17.539062 64.732422 C 19.565212 64.342778 21.475215 63.757804 23.267578 62.978516 C 25.059941 62.121299 26.500793 61.147644 27.591797 60.056641 C 26.189078 60.75799 24.748226 61.185929 23.267578 61.341797 C 21.864859 61.497644 20.53983 61.419137 19.292969 61.107422 C 18.046108 60.795707 16.993936 60.28925 16.136719 59.587891 C 15.279502 58.886531 14.694528 57.991394 14.382812 56.900391 C 13.447681 54.172882 13.526184 51.094884 14.617188 47.666016 C 15.708187 44.159219 17.421901 40.612069 19.759766 37.027344 C 22.09763 33.364689 24.904724 29.819493 28.177734 26.390625 C 31.450745 22.883828 34.838906 19.766571 38.345703 17.039062 C 41.930429 14.233629 45.438319 12.013458 48.867188 10.376953 C 52.296052 8.6625245 55.334795 7.7654339 57.984375 7.6875 C 60.400168 7.6875 62.231655 8.39025 63.478516 9.7929688 C 64.803306 11.117759 65.700396 12.831469 66.167969 14.935547 C 66.713481 17.039625 66.907821 19.416826 66.751953 22.066406 C 66.596095 24.638057 66.283979 27.131082 65.816406 29.546875 C 65.426762 31.88474 64.998823 34.028346 64.53125 35.976562 C 64.063667 37.846854 63.712292 39.132625 63.478516 39.833984 C 58.958644 41.938062 54.594875 44.276005 50.386719 46.847656 C 46.178563 49.341378 42.203474 51.991438 38.462891 54.796875 C 34.722307 57.524384 31.255628 60.329524 28.060547 63.212891 C 24.865465 66.096257 22.060325 68.979915 19.644531 71.863281 C 15.514304 76.772797 12.240012 81.175825 9.8242188 85.072266 C 7.4863542 88.968707 5.7726441 92.513903 4.6816406 95.708984 C 3.5127083 99.683354 3.2398511 102.91643 3.8632812 105.41016 C 4.5646406 107.90388 5.9289292 109.77462 7.9550781 111.02148 C 9.9812274 112.26835 12.552769 112.85332 15.669922 112.77539 C 18.787075 112.69749 22.177189 111.95741 25.839844 110.55469 C 29.580427 109.15197 33.398481 107.04762 37.294922 104.24219 C 41.269292 101.51468 45.126604 98.046047 48.867188 93.837891 C 52.451909 89.863521 55.724252 85.654833 58.685547 81.212891 C 61.646842 76.693019 64.296901 72.213427 66.634766 67.771484 C 68.97263 63.329542 70.959198 59.005031 72.595703 54.796875 C 74.310137 50.588719 75.674425 46.729453 76.6875 43.222656 C 78.01229 42.209582 79.959599 41.235927 82.53125 40.300781 C 85.102901 39.287707 87.792219 38.508392 90.597656 37.962891 C 89.428724 36.638101 87.909354 35.585929 86.039062 34.806641 C 84.168775 34.027352 81.870087 33.872271 79.142578 34.339844 C 79.843943 30.521332 80.156059 26.897618 80.078125 23.46875 C 80.078125 20.039882 79.414634 16.961884 78.089844 14.234375 C 76.842983 11.506866 74.777898 9.247441 71.894531 7.4550781 C 69.089094 5.5847865 65.231781 4.3363212 60.322266 3.7128906 C 58.763689 3.5180686 57.209169 3.4227376 55.658203 3.4257812 z M 351.86328 15.328125 C 351.10224 15.358735 350.47922 15.616463 349.99219 16.103516 C 347.42052 18.908953 344.84897 22.143987 342.27734 25.806641 C 341.88767 25.884571 341.53631 25.923828 341.22461 25.923828 L 340.40625 25.923828 C 339.31525 26.079696 338.14722 26.234772 336.90039 26.390625 C 335.65349 26.546493 334.32848 26.703492 332.92578 26.859375 C 330.04242 27.326948 327.39232 28.027745 324.97656 28.962891 C 324.58693 29.196692 324.23556 29.430293 323.92383 29.664062 C 323.61202 29.897864 323.37837 30.20997 323.22266 30.599609 C 322.75502 31.300976 322.67651 32.080284 322.98828 32.9375 C 323.06648 33.093368 323.1448 33.326955 323.22266 33.638672 C 323.30046 33.95037 323.4185 34.29981 323.57422 34.689453 C 323.72994 35.079096 323.92421 35.469732 324.1582 35.859375 C 324.39178 36.171073 324.58621 36.522463 324.74219 36.912109 C 325.13182 37.535539 325.59903 38.04199 326.14453 38.431641 C 326.5342 38.743338 326.96411 38.509771 327.43164 37.730469 C 327.58736 37.574601 327.86033 37.378291 328.25 37.144531 C 328.63963 36.832834 329.1461 36.599227 329.76953 36.443359 C 330.39296 36.209596 331.01528 36.015243 331.63867 35.859375 C 332.26214 35.703507 332.92559 35.548435 333.62695 35.392578 C 334.32828 35.236748 334.95056 35.118949 335.49609 35.041016 C 336.11953 34.963086 336.62601 34.923828 337.01562 34.923828 C 336.85993 35.313471 336.66563 35.7041 336.43164 36.09375 C 336.19807 36.405448 336.00364 36.754885 335.84766 37.144531 C 333.35392 41.976117 331.01598 46.885597 328.83398 51.873047 C 326.72988 56.860489 324.8199 61.966275 323.10547 67.1875 C 322.38725 69.374769 321.76309 71.459276 321.22266 73.455078 C 320.06911 73.575267 318.89431 73.553542 317.69922 73.382812 C 316.14062 73.149013 315.01191 72.797651 314.31055 72.330078 C 314.93394 69.524641 315.44045 66.796065 315.83008 64.146484 C 316.29761 61.496907 316.33693 58.731024 315.94727 55.847656 C 315.5576 52.730502 314.34843 50.23747 312.32227 48.367188 C 310.29614 46.496896 308.03666 45.211125 305.54297 44.509766 C 303.12713 43.808406 300.78923 43.651369 298.5293 44.041016 C 296.3473 44.352713 294.90645 45.132048 294.20508 46.378906 C 293.34792 47.937485 292.95734 49.574633 293.03516 51.289062 C 293.11296 52.925568 293.30729 54.562717 293.61914 56.199219 C 293.22947 56.588862 292.80151 56.93828 292.33398 57.25 C 291.86638 57.561698 291.43846 57.913092 291.04883 58.302734 C 289.95783 59.31581 288.82714 60.83518 287.6582 62.861328 C 286.41134 64.80955 285.35919 66.992412 284.50195 69.408203 C 283.64476 71.746071 283.02053 74.160576 282.63086 76.654297 C 282.24127 79.148018 282.35918 81.446703 282.98242 83.550781 C 283.37205 85.109356 284.30648 86.552164 285.78711 87.876953 C 287.26778 89.201742 288.94419 90.293175 290.81445 91.150391 C 292.76269 92.007606 294.67267 92.590627 296.54297 92.902344 C 298.49116 93.136145 300.08712 92.902531 301.33398 92.201172 C 302.81461 91.421886 304.13966 90.369711 305.30859 89.044922 C 306.55546 87.642203 307.60765 86.240606 308.46484 84.837891 C 309.40001 83.357242 310.1793 81.953702 310.80273 80.628906 C 311.42621 79.226191 311.93263 78.134751 312.32227 77.355469 C 314.42637 78.056821 316.2578 78.447457 317.81641 78.525391 C 318.51876 78.560541 319.24627 78.561183 319.99609 78.533203 C 319.80409 79.448786 319.62986 80.345432 319.48242 81.212891 C 318.70316 85.26519 318.46955 88.812344 318.78125 91.851562 C 319.32679 95.903862 320.69105 98.94261 322.87305 100.96875 C 325.05508 103.15077 327.15942 104.35801 329.18555 104.5918 C 331.44548 104.90349 333.15921 104.554 334.32812 103.54102 C 331.28888 103.22928 329.49667 100.93062 328.95117 96.644531 C 328.40567 92.592231 328.83363 87.252857 330.23633 80.628906 C 331.79489 74.004959 333.93852 67.148164 336.66602 60.056641 C 339.39355 53.198903 342.66588 46.497193 346.48438 39.951172 C 347.10775 39.016026 347.732 38.079681 348.35547 37.144531 L 350.22461 34.339844 C 352.95211 34.183976 356.96648 34.690431 362.26562 35.859375 C 365.77242 36.794521 368.11036 38.041034 369.2793 39.599609 C 369.98066 39.443742 370.33008 38.782214 370.33008 37.613281 C 370.25188 37.067782 370.13619 36.482804 369.98047 35.859375 C 369.82475 35.235942 369.66755 34.611714 369.51172 33.988281 C 368.96622 32.741419 368.45972 31.767766 367.99219 31.066406 C 367.21289 30.053334 365.85058 29.1955 363.90234 28.494141 C 362.11002 27.948638 359.57768 27.365615 356.30469 26.742188 C 356.6165 26.352545 357.00509 25.88339 357.47266 25.337891 C 357.94026 24.714458 358.48598 24.013664 359.10938 23.234375 C 359.73283 22.844732 359.92716 22.104678 359.69336 21.013672 C 359.45941 20.078526 358.68027 18.987097 357.35547 17.740234 C 355.95277 16.493364 354.62773 15.75331 353.38086 15.519531 C 352.82565 15.373415 352.31989 15.309832 351.86328 15.328125 z M 101.38281 39.582031 C 101.2647 39.584431 101.14814 39.589829 101.03125 39.599609 C 100.0961 39.599609 99.081238 39.872467 97.990234 40.417969 C 96.197872 41.431043 94.289821 43.028931 92.263672 45.210938 C 90.237523 47.392938 88.28826 49.925227 86.417969 52.808594 C 84.625606 55.69196 82.990413 58.769958 81.509766 62.042969 C 80.029118 65.315979 78.937687 68.472495 78.236328 71.511719 C 77.45703 74.550943 77.144914 77.395342 77.300781 80.044922 C 77.456639 82.616573 78.275212 84.681658 79.755859 86.240234 C 80.457219 86.941594 81.352356 87.681649 82.443359 88.460938 C 83.534363 89.24022 84.743569 89.941023 86.068359 90.564453 C 87.393149 91.109945 88.718179 91.46132 90.042969 91.617188 C 91.367759 91.773039 92.614271 91.539448 93.783203 90.916016 C 96.276925 89.513297 98.809202 87.721069 101.38086 85.539062 C 103.10324 84.077658 104.77318 82.509041 106.39062 80.837891 C 106.19441 81.9217 106.05054 82.983422 105.96875 84.019531 C 105.81289 85.188464 106.28009 86.3172 107.37109 87.408203 C 108.38417 88.421278 109.59338 89.279109 110.99609 89.980469 C 112.39881 90.603889 113.80047 90.994523 115.20312 91.150391 C 116.68377 91.306248 117.7752 91.033391 118.47656 90.332031 C 119.95721 88.929313 121.36076 87.409937 122.68555 85.773438 C 124.08827 84.136932 125.41134 82.499786 126.6582 80.863281 C 127.90506 79.226776 129.03575 77.7074 130.04883 76.304688 C 131.13983 74.82404 132.15274 73.538269 133.08789 72.447266 C 132.54239 74.239628 132.03593 76.226196 131.56836 78.408203 C 131.10078 80.59021 130.94569 82.30392 131.10156 83.550781 C 131.17946 84.485927 131.56817 85.461535 132.26953 86.474609 C 133.04882 87.409755 133.94591 88.228328 134.95898 88.929688 C 136.04999 89.553122 137.21798 89.981067 138.46484 90.214844 C 139.78963 90.370701 141.03615 90.176364 142.20508 89.630859 C 144.38709 88.617785 146.6092 86.902122 148.86914 84.486328 C 150.96799 82.170362 152.99848 79.61655 154.96289 76.830078 C 154.64224 77.843758 154.33158 78.842007 154.04102 79.810547 C 153.10587 82.849771 152.40507 85.30549 151.9375 87.175781 C 151.70371 87.877141 152.05314 88.577938 152.98828 89.279297 C 153.8455 89.980656 154.85841 90.526372 156.02734 90.916016 C 157.19628 91.30566 158.36622 91.5 159.53516 91.5 C 160.70409 91.42207 161.4834 91.033391 161.87305 90.332031 C 162.73026 88.539668 163.93752 86.27829 165.49609 83.550781 C 167.1326 80.823273 168.88752 78.057391 170.75781 75.251953 C 172.70603 72.446516 174.65334 69.796457 176.60156 67.302734 C 178.54978 64.809012 180.30275 62.900962 181.86133 61.576172 C 181.62754 62.121674 181.1996 63.328927 180.57617 65.199219 C 180.03067 66.991582 179.4457 69.017408 178.82227 71.277344 C 178.27677 73.537279 177.84882 75.798658 177.53711 78.058594 C 177.22539 80.318529 177.22539 82.110757 177.53711 83.435547 C 177.69297 84.214835 178.27794 84.994149 179.29102 85.773438 C 180.30409 86.55272 181.47209 87.175005 182.79688 87.642578 C 184.1216 88.110141 185.48595 88.422257 186.88867 88.578125 C 188.29139 88.656055 189.5379 88.422455 190.62891 87.876953 C 192.26541 87.019736 194.01838 85.576931 195.88867 83.550781 C 197.83689 81.524632 199.70764 79.265207 201.5 76.771484 C 203.37029 74.199833 205.084 71.549774 206.64258 68.822266 C 208.27908 66.094757 209.64337 63.601733 210.73438 61.341797 C 210.81227 61.10801 210.65718 60.795894 210.26758 60.40625 C 209.87793 59.938677 209.37148 59.549997 208.74805 59.238281 C 208.20255 58.926571 207.61757 58.732231 206.99414 58.654297 C 206.44863 58.576367 206.058 58.809967 205.82422 59.355469 C 204.57736 61.693333 203.17576 64.031276 201.61719 66.369141 C 200.05861 68.707005 198.42147 70.887919 196.70703 72.914062 C 195.07053 74.940212 193.39607 76.732439 191.68164 78.291016 C 189.96721 79.849592 188.36932 81.058799 186.88867 81.916016 C 186.88867 80.27951 187.23809 78.29099 187.93945 75.953125 C 188.64081 73.61526 189.45939 71.200753 190.39453 68.707031 C 191.32968 66.13538 192.30333 63.71892 193.31641 61.458984 C 194.32948 59.12112 195.14805 57.171858 195.77148 55.613281 C 196.16113 54.678135 196.00605 53.74374 195.30469 52.808594 C 194.68126 51.795519 193.78417 50.937687 192.61523 50.236328 C 191.4463 49.534959 190.16053 49.067761 188.75781 48.833984 C 187.43302 48.600198 186.30429 48.757234 185.36914 49.302734 C 183.96642 50.159951 182.52362 51.212123 181.04297 52.458984 C 179.56232 53.705845 178.08221 55.107439 176.60156 56.666016 C 175.19884 58.224592 173.75799 59.900997 172.27734 61.693359 C 170.87463 63.485722 169.5496 65.277956 168.30273 67.070312 C 168.38063 66.680674 168.69083 65.940613 169.23633 64.849609 C 169.85976 63.758606 170.56251 62.510141 171.3418 61.107422 C 172.19901 59.626774 173.05489 58.068146 173.91211 56.431641 C 174.84726 54.717207 175.70509 53.042755 176.48438 51.40625 C 176.7181 50.782819 176.44528 50.042764 175.66602 49.185547 C 174.96466 48.32833 174.03026 47.62558 172.86133 47.080078 C 171.6924 46.534576 170.48319 46.263672 169.23633 46.263672 C 168.0674 46.263672 167.21152 46.807434 166.66602 47.898438 C 165.38508 50.140071 164.17964 52.514202 163.04492 55.011719 C 162.53002 54.981249 162.16854 55.104049 161.96094 55.380859 C 157.28521 63.407528 153.34938 69.485007 150.1543 73.615234 C 146.95922 77.745457 144.58201 79.849801 143.02344 79.927734 C 142.47794 79.927734 142.16778 79.305455 142.08984 78.058594 C 142.08984 76.811733 142.43933 74.980247 143.14062 72.564453 C 143.91991 70.14866 145.08986 67.186478 146.64844 63.679688 C 148.28494 60.172891 150.42659 56.160496 153.07617 51.640625 C 153.62166 50.783408 153.54511 49.886318 152.84375 48.951172 C 152.22032 47.938097 151.36249 47.080266 150.27148 46.378906 C 149.18048 45.677557 148.01249 45.249618 146.76562 45.09375 C 145.59675 44.937892 144.73886 45.21075 144.19336 45.912109 C 143.25821 46.925184 142.36112 47.977356 141.50391 49.068359 C 140.72462 50.081434 139.90605 51.055089 139.04883 51.990234 C 137.72404 51.210946 136.47753 50.431632 135.30859 49.652344 C 134.13966 48.795127 132.97167 48.172847 131.80273 47.783203 C 130.6338 47.31562 129.4246 47.158585 128.17773 47.314453 C 126.93087 47.470311 125.56854 48.133802 124.08789 49.302734 C 122.06174 51.017168 119.99666 53.237335 117.89258 55.964844 C 117.54806 56.428622 117.21021 56.901609 116.87695 57.378906 C 116.85475 57.375306 116.83285 57.370407 116.81055 57.367188 C 116.34297 57.289248 115.95429 57.407038 115.64258 57.71875 C 114.16193 60.757974 112.21261 63.875237 109.79688 67.070312 C 107.38108 70.265394 104.92732 73.149052 102.43359 75.720703 C 99.939896 78.214425 97.523411 80.240252 95.185547 81.798828 C 92.925611 83.357394 91.172642 84.018933 89.925781 83.785156 C 89.068569 83.629299 88.601365 82.96776 88.523438 81.798828 C 88.445528 80.551967 88.522038 79.14842 88.755859 77.589844 C 88.989646 76.031267 89.341021 74.511898 89.808594 73.03125 C 90.276167 71.472674 90.704106 70.304679 91.09375 69.525391 C 92.496469 70.148811 93.78224 70.537492 94.951172 70.693359 C 96.120104 70.849227 97.484392 70.731439 99.042969 70.341797 C 101.22498 69.640438 103.17424 68.278102 104.88867 66.251953 C 106.68103 64.147875 108.16115 61.925755 109.33008 59.587891 C 110.57694 57.172097 111.51134 54.873413 112.13477 52.691406 C 112.83612 50.509399 113.1875 48.99003 113.1875 48.132812 C 113.34336 46.340456 112.48553 44.860339 110.61523 43.691406 C 109.29044 42.912118 108.08319 42.211321 106.99219 41.587891 C 105.97911 40.886531 104.9662 40.380075 103.95312 40.068359 C 103.06674 39.727416 102.20959 39.564981 101.38281 39.582031 z M 357.38867 43.833984 C 356.5193 43.826784 355.65995 43.894904 354.8125 44.041016 C 352.63047 44.352713 351.18965 45.132051 350.48828 46.378906 C 349.63116 47.937485 349.2405 49.574633 349.31836 51.289062 C 349.39626 52.925568 349.59237 54.562714 349.9043 56.199219 C 349.51463 56.588862 349.08472 56.938283 348.61719 57.25 C 348.14958 57.561698 347.7217 57.913088 347.33203 58.302734 C 346.24103 59.315807 345.11034 60.835184 343.94141 62.861328 C 342.6945 64.809554 341.64239 66.992412 340.78516 69.408203 C 339.92792 71.746071 339.30565 74.160576 338.91602 76.654297 C 338.52638 79.148018 338.64202 81.446703 339.26562 83.550781 C 339.65526 85.109356 340.5916 86.552164 342.07227 87.876953 C 343.5529 89.201742 345.22736 90.293175 347.09766 91.150391 C 349.04589 92.007606 350.95587 92.590623 352.82617 92.902344 C 354.77437 93.136145 356.37227 92.902531 357.61914 92.201172 C 359.09981 91.421886 360.42482 90.369711 361.59375 89.044922 C 362.84058 87.642203 363.89277 86.240609 364.75 84.837891 C 365.68513 83.357242 366.46446 81.953702 367.08789 80.628906 C 367.71132 79.226191 368.21779 78.134751 368.60742 77.355469 C 370.71148 78.056821 372.54296 78.447457 374.10156 78.525391 C 375.66013 78.603291 377.33459 78.524783 379.12695 78.291016 C 379.51655 78.291016 379.82866 78.018174 380.0625 77.472656 C 380.37431 76.927157 380.5293 76.344132 380.5293 75.720703 C 380.5293 75.019344 380.37435 74.43437 380.0625 73.966797 C 379.82893 73.42129 379.39882 73.187691 378.77539 73.265625 C 377.21683 73.577323 375.62085 73.616576 373.98438 73.382812 C 372.42581 73.149013 371.29508 72.797651 370.59375 72.330078 C 371.21718 69.524641 371.72361 66.796065 372.11328 64.146484 C 372.58077 61.496907 372.62018 58.731024 372.23047 55.847656 C 371.8408 52.730502 370.63355 50.23747 368.60742 48.367188 C 366.58125 46.496896 364.31987 45.211125 361.82617 44.509766 C 360.31633 44.071416 358.83767 43.846166 357.38867 43.833984 z M 103.95312 49.068359 C 103.79732 50.393149 103.40663 51.991036 102.7832 53.861328 C 102.2377 55.73162 101.45839 57.523847 100.44531 59.238281 C 99.510182 60.874786 98.420689 62.239075 97.173828 63.330078 C 96.004896 64.421072 94.717172 64.849011 93.314453 64.615234 C 93.314453 64.22559 93.705087 63.289241 94.484375 61.808594 C 95.341592 60.327946 96.315247 58.732012 97.40625 57.017578 C 98.575182 55.303144 99.745145 53.705257 100.91406 52.224609 C 102.16092 50.666033 103.17389 49.613861 103.95312 49.068359 z M 59.738281 50.236328 C 58.647278 52.73005 57.440024 55.458627 56.115234 58.419922 C 54.790444 61.303288 53.269118 64.342028 51.554688 67.537109 C 49.840253 70.654262 47.853686 73.850036 45.59375 77.123047 C 43.411743 80.396057 40.918719 83.589878 38.113281 86.707031 C 31.411403 94.188198 25.995462 99.293992 21.865234 102.02148 C 17.735007 104.82692 15.006431 105.76132 13.681641 104.82617 C 12.356841 103.96895 12.474627 101.59175 14.033203 97.695312 C 15.59178 93.720947 18.709036 88.811458 23.384766 82.966797 C 25.72263 80.083431 28.333431 77.08395 31.216797 73.966797 C 34.100163 70.849644 37.099644 67.84821 40.216797 64.964844 C 43.411878 62.081477 46.646911 59.394113 49.919922 56.900391 C 53.270861 54.32874 56.5432 52.10662 59.738281 50.236328 z M 304.60742 50.822266 C 304.91923 51.367769 305.19194 52.262903 305.42578 53.509766 C 305.73759 54.678698 305.93195 56.042989 306.00977 57.601562 C 306.16586 59.082211 306.16586 60.601581 306.00977 62.160156 C 305.85405 63.640805 305.54374 64.926572 305.07617 66.017578 C 303.75149 62.900424 303.00946 59.977507 302.85352 57.25 C 302.77562 54.522489 303.36056 52.380845 304.60742 50.822266 z M 360.89258 50.822266 C 361.20439 51.367769 361.47515 52.262903 361.70898 53.509766 C 362.0208 54.678698 362.21703 56.042988 362.29492 57.601562 C 362.45102 59.082211 362.45102 60.601581 362.29492 62.160156 C 362.13921 63.640805 361.82697 64.926572 361.35938 66.017578 C 360.03446 62.900424 359.29439 59.977507 359.13867 57.25 C 359.06077 54.522489 359.64571 52.380845 360.89258 50.822266 z M 132.05859 54.880859 C 132.13169 54.883259 132.20134 54.892629 132.26953 54.912109 C 132.81504 55.067967 133.20568 55.497859 133.43945 56.199219 C 133.75117 56.822649 133.90625 57.523446 133.90625 58.302734 C 133.90625 59.082023 133.79042 59.627738 133.55664 59.939453 C 132.62149 61.342172 131.41229 63.016623 129.93164 64.964844 C 128.45099 66.913064 126.93162 68.862326 125.37305 70.810547 C 123.81447 72.758767 122.2951 74.550995 120.81445 76.1875 C 119.41173 77.746076 118.28105 78.876766 117.42383 79.578125 C 117.42383 78.642979 117.7752 77.239432 118.47656 75.369141 C 119.17792 73.42092 120.07306 71.316576 121.16406 69.056641 C 122.33299 66.796705 123.65802 64.498021 125.13867 62.160156 C 126.69725 59.822292 128.37365 57.796465 130.16602 56.082031 C 130.91608 55.26377 131.54719 54.863806 132.05859 54.880859 z M 297.00977 65.550781 C 298.49043 68.434149 300.59477 70.809396 303.32227 72.679688 C 302.23127 75.407194 300.94551 77.980697 299.46484 80.396484 C 298.06215 82.812283 295.84001 84.91467 292.80078 86.707031 C 292.33314 85.304313 292.21737 83.512086 292.45117 81.330078 C 292.68512 79.07014 293.07364 76.849977 293.61914 74.667969 C 294.24257 72.40803 294.8668 70.421467 295.49023 68.707031 C 296.11367 66.992596 296.62013 65.940424 297.00977 65.550781 z M 353.29297 65.550781 C 354.7736 68.434149 356.87793 70.809396 359.60547 72.679688 C 358.51443 75.407193 357.22868 77.980697 355.74805 80.396484 C 354.34528 82.812283 352.12513 84.91467 349.08594 86.707031 C 348.6183 85.304313 348.50038 83.512086 348.73438 81.330078 C 348.96793 79.07014 349.3588 76.849977 349.9043 74.667969 C 350.52773 72.40803 351.15004 70.421467 351.77344 68.707031 C 352.39691 66.992596 352.9033 65.940424 353.29297 65.550781 z "
       transform="matrix(0.26458333,0,0,0.26458333,41.639263,47.80392)" />
  </g>
</svg>
